<svg xmlns="http://www.w3.org/2000/svg" width="21" height="20" fill="none" viewBox="0 0 21 20">
    <path fill="#00A0E5" fill-rule="evenodd" d="M6.187 2.855c0-1.105.895-2 2-2h4.106c1.105 0 2 .895 2 2v1H13.28v-1c0-.552-.448-1-1-1H8.2c-.552 0-1 .448-1 1v1H6.187v-1zm-6.08 4c0-1.105.895-2 2-2h16.266c1.105 0 2 .895 2 2v4c0 1.104-.895 2-2 2H13.28c0-1.105-.895-2-2-2H9.2c-1.105 0-2 .895-2 2H2.107c-1.105 0-2-.896-2-2v-4zm9.093 9c-1.105 0-2-.895-2-2H2.107c-.594 0-1.127-.259-1.494-.67v4.67c0 1.105.896 2 2 2h15.254c1.104 0 2-.895 2-2v-4.67c-.367.411-.9.67-1.494.67H13.28c0 1.105-.896 2-2 2H9.2zm.013-4c-.552 0-1 .448-1 1v1c0 .552.448 1 1 1h2.054c.552 0 1-.448 1-1v-1c0-.552-.448-1-1-1H9.213z" clip-rule="evenodd"/>
</svg>
