<svg xmlns="http://www.w3.org/2000/svg" width="214" height="260" fill="none" viewBox="0 0 214 260">
    <path fill="#DEE8F0" d="M131.378 195.277c-7.814-4.554-20.448-4.554-28.212 0-7.763 4.553-7.727 11.938.092 16.487 7.819 4.549 20.448 4.553 28.212 0 7.764-4.554 7.713-11.934-.092-16.487zM203.494 166.117c-4.266-2.485-11.16-2.485-15.399 0-4.239 2.484-4.216 6.516.051 9.001 4.266 2.484 11.16 2.484 15.399 0 4.239-2.485 4.216-6.517-.051-9.001zM70.71 167.618c-10.19-5.935-26.66-5.935-36.785 0-10.126 5.934-10.071 15.563.119 21.502 10.19 5.94 26.665 5.935 36.79 0 10.126-5.934 10.071-15.554-.123-21.502zM180.597 181.237l-2.403 1.386c-.265.154-.566.235-.872.235-.307 0-.607-.081-.872-.235l-65.255-38.009c-.061-.042-.111-.099-.146-.166-.035-.066-.053-.14-.053-.215 0-.075.018-.149.053-.215.035-.067.085-.123.146-.166l2.399-1.385c.266-.155.567-.236.874-.236.307 0 .609.081.875.236l65.254 38.008c.061.042.111.099.146.166.035.066.053.14.053.215 0 .075-.018.149-.053.215-.035.067-.085.124-.146.166zM159.696 182.008l-2.399 1.386c-.266.154-.568.235-.874.235-.307 0-.609-.081-.875-.235l-60.997-35.39c-.061-.042-.111-.099-.146-.166-.035-.066-.053-.14-.053-.215 0-.075.018-.149.053-.215.035-.067.085-.124.146-.166l2.399-1.386c.266-.154.567-.235.874-.235.307 0 .609.081.875.235l60.997 35.404c.058.043.106.099.139.164.033.065.05.137.05.21 0 .073-.017.145-.05.21s-.081.122-.139.164z"/>
    <path fill="#E0E0E0" d="M203.595 155.874l-8.034.235-8.038-.235c-.343 5.472.714 11.051 2.174 13.78.345.701.901 1.274 1.589 1.635 2.371 1.386 6.202 1.386 8.56 0 .698-.367 1.256-.956 1.588-1.676 1.461-2.743 2.509-8.295 2.161-13.739z"/>
    <path fill="#EBEBEB" d="M201.224 152.553c3.149 1.847 3.168 4.808.037 6.641-3.132 1.833-8.24 1.847-11.367 0-3.126-1.847-3.163-4.808-.036-6.641 3.126-1.834 8.217-1.834 11.366 0z"/>
    <path fill="#E0E0E0" d="M199.979 153.301c2.458 1.432 2.472 3.75.027 5.182-2.444 1.431-6.408 1.427-8.862 0-2.454-1.427-2.472-3.75-.032-5.182 2.44-1.432 6.409-1.45 8.867 0z"/>
    <path fill="#000" d="M199.979 153.301c2.458 1.432 2.472 3.75.027 5.182-2.444 1.431-6.408 1.427-8.862 0-2.454-1.427-2.472-3.75-.032-5.182 2.44-1.432 6.409-1.45 8.867 0z" opacity=".15"/>
    <path fill="#12C32C" d="M208.772 121.273c-18.109 6.004-18.274 18.21-14.19 26.911 1.03 1.764 4.147 2.711 6.866-8.114l-4.756.614 5.543-2.836 1.442-4.341-4.623.347 5.864-2.49c1.08-3.439 2.367-6.809 3.854-10.091z"/>
    <path fill="#000" d="M208.772 121.273c-18.109 6.004-18.274 18.21-14.19 26.911 1.03 1.764 4.147 2.711 6.866-8.114l-4.756.614 5.543-2.836 1.442-4.341-4.623.347 5.864-2.49c1.08-3.439 2.367-6.809 3.854-10.091z" opacity=".2"/>
    <path fill="#fff" d="M203.65 124.331c-9.549 7.315-10.41 15.702-7.713 24.449-.957-7.703-1.987-15.499 7.713-24.449z"/>
    <path fill="#12C32C" d="M178.098 133.692c17.852 2.535 20.018 13.892 17.651 22.68-.668 1.815-3.415 3.233-7.727-6.405l4.532-.227-5.626-1.708-2.06-3.806 4.362-.462-5.873-1.334c-1.572-3.02-3.329-5.938-5.259-8.738z"/>
    <path fill="#fff" d="M178.098 133.692c17.852 2.535 20.018 13.892 17.651 22.68-.668 1.815-3.415 3.233-7.727-6.405l4.532-.227-5.626-1.708-2.06-3.806 4.362-.462-5.873-1.334c-1.572-3.02-3.329-5.938-5.259-8.738z" opacity=".2"/>
    <path fill="#fff" d="M183.371 135.678c10.103 5.214 12.286 12.876 11.215 21.479-.384-7.338-.705-14.769-11.215-21.479z"/>
    <path fill="#12C32C" d="M214 137.945c-16.374.273-19.583 10.262-18.425 18.473.403 1.709 2.719 3.284 7.672-4.904l-4.06-.716 5.264-.924 2.289-3.195-3.882-.924 5.425-.517c1.756-2.547 3.665-4.982 5.717-7.293z"/>
    <path fill="#fff" d="M209.024 139.146c-9.682 3.552-12.497 10.216-12.488 18.09 1.158-6.572 2.271-13.232 12.488-18.09z"/>
    <path fill="#12C32C" d="M110.669 30.566c.086-.362.223-.708.407-1.03.403-.642 1.131-1.016 2.843-.98.24.005.476.05.701.135l64.297 36.9c.706.412 1.292 1.003 1.703 1.714.41.711.629 1.518.636 2.34v105.537c0 1.885-1.098 2.591-2.311 2.674-.527.028-1.055-.04-1.557-.203-.062-.02-.124-.045-.183-.074l-64.302-36.946c-.709-.408-1.299-.998-1.709-1.71-.41-.712-.626-1.521-.626-2.345V31.074c-.004-.175.03-.349.101-.508z"/>
    <path fill="#000" d="M110.669 30.566c.086-.362.223-.708.407-1.03.403-.642 1.131-1.016 2.843-.98.24.005.476.05.701.135l64.297 36.9c.706.412 1.292 1.003 1.703 1.714.41.711.629 1.518.636 2.34v105.537c0 1.885-1.098 2.591-2.311 2.674-.527.028-1.055-.04-1.557-.203-.062-.02-.124-.045-.183-.074l-64.302-36.946c-.709-.408-1.299-.998-1.709-1.71-.41-.712-.626-1.521-.626-2.345V31.074c-.004-.175.03-.349.101-.508z" opacity=".2"/>
    <path fill="#000" d="M180.771 67.6c.314.635.478 1.335.481 2.045v105.537c0 1.885-1.099 2.591-2.312 2.674.328-.515.488-1.12.458-1.732V70.588c-.003-.71-.167-1.41-.481-2.046-.05-.107-.114-.208-.174-.31l1.785-1.039c.088.131.169.267.243.407z" opacity=".2"/>
    <path fill="#fff" d="M113.915 28.557c.239.004.476.049.7.134l64.298 36.9c.667.386 1.226.938 1.625 1.602l-1.786 1.04c-.403-.707-.984-1.294-1.684-1.7L112.77 29.637c-.224-.084-.461-.13-.7-.138-.333-.01-.667.002-.998.037.403-.642 1.131-1.016 2.843-.98z" opacity=".2"/>
    <path fill="#455A64" d="M113.48 33.863l62.869 36.609v99.515l-62.869-36.609V33.863z"/>
    <path fill="#12C32C" d="M141.687 151.481c.606.384 1.129.887 1.536 1.48.408.593.692 1.263.835 1.97.161 1.233-.65 1.69-1.808 1.016-.606-.384-1.129-.887-1.537-1.48-.408-.593-.693-1.263-.839-1.97-.155-1.233.66-1.69 1.813-1.016z"/>
    <path fill="#000" d="M141.687 151.481c.606.384 1.129.887 1.536 1.48.408.593.692 1.263.835 1.97.161 1.233-.65 1.69-1.808 1.016-.606-.384-1.129-.887-1.537-1.48-.408-.593-.693-1.263-.839-1.97-.155-1.233.66-1.69 1.813-1.016z" opacity=".4"/>
    <path fill="#12C32C" d="M96.652 47.69v-3.233c0-.16.038-.318.11-.462.079-.322.2-.633.362-.923.352-.564.998-.892 2.504-.864.21.008.416.049.613.12l56.635 32.5c.622.362 1.14.883 1.501 1.51.362.627.554 1.338.559 2.064v3.694l-1.625.924-60.659-35.33z"/>
    <path fill="#12C32C" d="M157.306 83.076l1.625-.924v92.463c0 1.657-.966 2.309-2.037 2.355-.465.024-.929-.036-1.373-.176-.056-.016-.109-.038-.161-.064l-56.648-32.555c-.625-.358-1.145-.877-1.507-1.504-.362-.627-.553-1.34-.553-2.066V47.69l60.654 35.386z"/>
    <path fill="#000" d="M158.51 76.638c.273.562.417 1.18.421 1.805v96.172c0 1.657-.966 2.309-2.037 2.355.291-.453.435-.985.412-1.524V79.261c-.001-.625-.145-1.242-.421-1.801-.046-.093-.105-.18-.156-.273l1.575-.923c.082.124.142.24.206.374z" opacity=".4"/>
    <path fill="#fff" d="M99.623 42.24c.21.008.416.049.613.12l56.635 32.5c.587.343 1.079.829 1.433 1.413l-1.575.924c-.355-.622-.867-1.138-1.483-1.497l-56.63-32.508c-.198-.072-.407-.113-.618-.12-.293-.007-.587.004-.879.032.353-.563.998-.891 2.504-.863z" opacity=".2"/>
    <path fill="#fff" d="M96.652 47.69v-3.233c0-.16.038-.318.11-.462.079-.322.2-.633.362-.923.352-.564.998-.892 2.504-.864.21.008.416.049.613.12l56.635 32.5c.622.362 1.14.883 1.501 1.51.362.627.554 1.338.559 2.064v3.694l-1.625.924-60.659-35.33z" opacity=".2"/>
    <path fill="#fff" d="M157.306 83.076l1.625-.924v92.463c0 1.657-.966 2.309-2.037 2.355-.465.024-.929-.036-1.373-.176-.056-.016-.109-.038-.161-.064l-56.648-32.555c-.625-.358-1.145-.877-1.507-1.504-.362-.627-.553-1.34-.553-2.066V47.69l60.654 35.386z" opacity=".7"/>
    <path fill="#fff" d="M152.184 82.558c.751.493 1.377 1.158 1.825 1.942.448.783.705 1.662.752 2.566 0 1.662-1.167 2.309-2.596 1.5l-50.811-29.584c-.752-.494-1.378-1.16-1.826-1.944-.448-.784-.705-1.664-.752-2.568 0-1.658 1.168-2.31 2.596-1.496l50.812 29.584z"/>
    <path fill="#12C32C" d="M151.474 83.408l.504 1.492 1.144.859-.829.448.188 1.431-1.016-1.214-1.021.027.197-1.205-.819-1.408 1.139.47.513-.9z"/>
    <path fill="#fff" d="M151.474 83.408l.504 1.492 1.144.859-.829.448.188 1.431-1.016-1.214-1.021.027.197-1.205-.819-1.408 1.139.47.513-.9z" opacity=".2"/>
    <path fill="#12C32C" d="M124.736 77.349c-6.477-3.773-12.181-3.21-15.472.748.201.175.425.254.627.43.292.322.528.692.696 1.094.163.386.431.718.773.956 0-.23.174-.286.362-.175.044.026.086.057.123.092.046-.231-.173-.559-.256-.85-.105-.37.041-.646.27-.711.085-.021.174-.023.26-.005.085.019.166.057.235.111.193.146.324.36.366.6.007.112.054.217.133.296.103.102.182.227.228.365.019-.177.1-.34.229-.462.044-.02.093-.028.141-.024.048.005.094.02.134.047.087.053.157.13.201.222.133.258 0 .462 0 .693-.004.17.032.34.106.494.036.08.091.152.16.208.11.064.197-.033.224-.153.055-.29-.036-.679 0-.974.029-.137.08-.268.151-.388.046-.088.11-.18.252-.125.114.09.199.212.243.351.045.16.105.314.178.462.088.13.204.237.339.314.161.086.334.147.513.18.186.033.365.097.531.19.304.198.545.48.695.812.15.3.194.642.124.97-.087.268-.307.411-.32.734.009.115.001.23-.023.342-.012.033-.032.062-.059.084-.026.022-.058.036-.092.04-.233.033-.469-.027-.66-.165-.159-.093-.312-.196-.457-.31-.107-.076-.202-.166-.284-.268-.086-.104-.136-.234-.142-.37.008-.056.03-.11.064-.156.095-.163.137-.352.119-.54-.035-.27-.175-.514-.389-.68-.036-.025-.077-.041-.12-.047-.043-.006-.087-.002-.128.013-.041.014-.078.038-.109.07-.03.032-.052.07-.064.112-.055.242-.055.493 0 .735.013.08.013.16 0 .24-.028.166-.206.166-.398.065-.075-.045-.147-.094-.216-.148l-.228-.153c-.118-.081-.262-.116-.403-.096-.142.02-.271.092-.362.203-.164.277-.232.602-.192.923.008.406.142.798.384 1.122.197.24.458.37.627.642.252.402.179.892.458 1.28.061.09.141.168.234.226.036.025.078.041.121.048.044.008.088.005.13-.007.138-.05.179-.267.097-.494-.083-.226-.28-.517-.216-.67.025-.04.062-.07.106-.087.156-.098.277-.243.345-.415.069-.172.081-.362.035-.541-.046-.282-.179-.624-.087-.813.091-.19.251-.115.457 0 .27.166.501.388.678.651.102.2.249.373.43.504.057.016.117.016.174 0 .224-.03.452.023.641.147.105.064.205.137.298.218.333.302.61.662.819 1.062.179.332.325.674.494 1.007.264.513.593.99.98 1.417.136.138.263.285.38.44.119.15.198.33.229.521.009.088-.01.176-.054.252-.043.076-.109.137-.189.173-.11.074-.244.105-.375.088-.065-.013-.127-.036-.183-.07-.104-.063-.193-.148-.261-.25-.129-.274-.218-.567-.266-.867-.106-.317-.29-.602-.535-.827-.072-.058-.147-.112-.225-.162-.139-.084-.296-.134-.457-.147-.048-.009-.097-.004-.142.013-.045.017-.084.046-.115.084-.031.053-.048.115-.048.177 0 .063.017.124.048.178.114.189.271.347.458.462.155.14.281.312.368.504.087.191.135.398.14.609.002.044-.006.088-.022.13-.015.04-.039.078-.069.11-.078.079-.211.06-.339.023-.16-.044-.314-.11-.458-.194-.172-.099-.333-.217-.481-.35 0 .193-.059.42-.183.489-.136.046-.277.072-.421.078-.375.079-.59.462-.773.85-.084.16-.147.332-.188.508-.156.702.142 1.686.485 2.591.081.183.13.378.147.577 0 .157-.119.264-.289.157-.124-.134-.222-.29-.288-.461-.122-.196-.255-.384-.398-.564-.161-.283-.337-.558-.527-.822-.067-.081-.147-.15-.238-.203-.155-.093-.302-.102-.343.046-.041.148 0 .406-.192.392-.084-.061-.161-.133-.229-.212-.041-.037-.086-.07-.133-.097-.039-.03-.085-.053-.133-.066-.048-.012-.099-.015-.148-.007-.049.008-.097.026-.139.053-.042.026-.078.062-.106.103-.109.289-.109.608 0 .896.111.352.254.694.425 1.02.072.18.171.346.293.495.106.107.228.196.362.263.22.116.49.19.526-.037.037-.226-.137-.53-.027-.632.019-.01.04-.015.062-.015.021 0 .042.005.061.015.046.006.09.024.129.05.124.087.229.2.308.33.079.13.13.276.149.428-.007.173-.032.344-.073.512.181.45.488.835.884 1.109.375.22.698.519.947.877.082.163.179.317.289.462.045.051.097.095.155.13.083.044.17.078.261.101.092.025.181.06.266.106.057.035.109.076.155.125.111.142.203.297.275.462.065.165.177.308.32.411.11.051.197 0 .298 0 .05.006.099.024.142.051.229.169.412.395.531.655.142.334.332.645.563.924.064.065.136.121.215.166.219.105.454.171.696.194.273.061.536.164.778.305.178.096.324.242.421.42.065.122.093.26.08.397-.013.138-.066.268-.153.375-.091.088-.157.199-.192.321-.036.123-.039.252-.01.376.225.836.458 1.815-.032 2.037-.077.032-.169.06-.196.161-.015.104-.006.21.027.31.127.439.191.895.188 1.353-.028.277-.119.499-.165.766-.077.591.001 1.191.224 1.742.092.216.169.438.234.665.036.161.036.309.064.461.103.531.369 1.016.76 1.386.174.143.339.298.494.462.151.175.27.462.197.6-.073.139-.266.051-.458-.065l-.915-.558c-.322-.174-.619-.39-.884-.642-.297-.288-.504-.657-.595-1.063-.007-.138-.027-.276-.059-.411-.106-.323-.408-.568-.541-.886-.066-.22-.111-.446-.137-.675-.156-.412-.369-.801-.632-1.154-.187-.314-.34-.647-.457-.993-.193-.582-.289-1.242-.687-1.713-.249-.258-.538-.472-.856-.633-.335-.193-.591-.499-.723-.864-.046-.152-.042-.295-.092-.462-.146-.429-.586-.655-.856-1.039-.214-.326-.317-.713-.293-1.103.044-.336.058-.674.041-1.012-.027-.231-.1-.462-.146-.72-.138-.762.046-1.413.458-1.663-.273-.336-.602-.622-.971-.845-.068-.04-.138-.078-.21-.11-.277-.094-.548-.205-.811-.333-.064-.035-.125-.076-.183-.12-.406-.386-.719-.86-.915-1.386-.204-.525-.447-1.032-.728-1.52-.374-.536-.828-1.011-1.346-1.408-.068-.056-.141-.104-.22-.143-.054-.02-.111-.03-.169-.028-.092-.013-.181-.044-.261-.092-.262-.172-.47-.415-.6-.702-.092-.342-.247-.663-.457-.947-.092-.042-.152.037-.152.143.014.12.047.237.097.347.244.582.551 1.134.915 1.648.147.213.325.462.284.665-.041.204-.179.13-.33.042-.084-.05-.163-.11-.233-.18-.497-.511-.846-1.15-1.007-1.847-.138-.652-.06-1.284-.403-1.922-.179-.332-.458-.605-.604-.923-.127-.27-.169-.574-.119-.869.049-.222.139-.434.265-.623.275-.462.028-1.529-.146-2.31-.203-.77-.364-1.552-.481-2.34-.055-.762-.015-1.526.119-2.277.028-.227.064-.462.096-.68-1.128 2.427-1.683 5.085-1.62 7.764-.032 11.767 8.171 26.107 18.31 32.023 10.14 5.916 18.412 1.159 18.444-10.622.032-11.781-8.126-26.075-18.279-31.986zm-4.344 10.373c-.05.009-.101.009-.151 0l-.055-.028c-.044-.025-.082-.06-.11-.102l-.05-.083-.074-.06-.082-.055-.256-.13h-.023c-.118-.066-.218-.16-.293-.272l-.055-.111v-.092c.003-.07.014-.14.032-.208l.032-.088c.046-.07.151-.055.252 0 .056.032.105.075.146.125.054.06.095.131.124.208.049.113.121.215.21.3.065.055.129.12.188.18.045.047.086.098.124.152.038.06.064.128.078.199v.041l-.037.024zm1.469-4.508c-.247.077-.512.077-.76 0-.384-.046-.764 0-.915.356-.069.184-.115.376-.137.572-.01.118-.044.232-.1.335-.056.104-.133.194-.225.266-.074.034-.154.048-.235.041-.08-.007-.157-.036-.223-.083-.087-.053-.164-.12-.229-.198-.19-.256-.312-.556-.353-.873-.361-.222-.653-.542-.842-.924-.114-.272-.11-.545-.206-.817-.096-.273-.334-.615-.426-.924-.091-.31 0-.674.252-.684.096 0 .229 0 .202-.138-.023-.073-.061-.14-.11-.199-.071-.113-.115-.241-.127-.375-.012-.133.008-.267.058-.391.114-.176.199-.37.252-.573.014-.146-.009-.293-.068-.427-.058-.135-.15-.251-.266-.34-.077-.038-.162-.06-.247-.064-.149-.04-.291-.102-.422-.185l-.132-.079-.165-.101c-.145-.102-.314-.163-.49-.176-.265 0-.458.148-.71 0-.2-.135-.36-.323-.461-.544-.102-.22-.142-.465-.115-.707.192-.665 1.053-.638 1.707-.259.291.197.573.408.842.633.292.226.598.433.916.619.659.383 1.323.683 1.987 1.057l.064.042c.19.1.36.237.499.402.147.192.262.407.338.637.184.473.262.98.229 1.487-.031.185-.047.372-.05.559.004.226.072.445.197.633.151.212.366.332.513.554.1.121.153.276.146.434-.007.158-.072.308-.183.42l-.005.014zm15.052 28.236c-.144.061-.264.166-.344.3-.049.258-.069.519-.059.781-.001.113-.037.222-.103.313-.065.091-.158.159-.263.195-.163.034-.332.034-.495 0l-.384-.069c-.041-.004-.08-.017-.115-.037-.082-.07-.147-.158-.187-.259-.035-.055-.06-.116-.074-.18-.012-.036-.012-.075 0-.111.165-.462.655-.586.687-1.154v-.342c0-.106.055-.199.142-.203.049.001.098.014.142.037l.458.194c.228.092.347.083.48-.051.036-.046.086-.079.142-.093.057-.015.116-.01.169.014l.042.023c.389.167-.147.578-.234.628l-.004.014zm1.721-8.553c-.128.351.064.952-.051 1.316-.033.108-.093.204-.173.282-.276.314-.649.524-1.058.596-.093.021-.19.008-.275-.037-.114-.084-.213-.187-.293-.305-.236-.28-.413-.605-.521-.956-.092-.462.174-.697.27-1.053.019-.061.019-.128 0-.189-.025-.065-.057-.127-.096-.185l-.774-1.27c-.085-.174-.201-.331-.343-.462-.074.356-.142.707-.216 1.058-.047.198-.064.402-.05.605.122.566.364 1.098.71 1.561l.741 1.164c-.032.558.293 1.302.261 1.847-.03.208-.105.407-.219.583-.115.175-.267.323-.445.433-.366.319-1.025.462-1.085 1.118l-.178 1.847c-.005.17-.036.338-.092.499-.107.196-.276.35-.48.438-.733.437-1.353 1.043-1.808 1.769-.028.051-.06.097-.115.097-.055 0-.082 0-.169-.064-.23-.154-.451-.322-.659-.504-.075-.062-.14-.135-.193-.217-.046-.081-.08-.168-.1-.259-.183-.632-.362-1.265-.545-1.893-.074-.218-.117-.445-.128-.674.009-.16.048-.317.114-.462.202-.462.751-.859.659-1.547-.091-.688-.348-1.437-.425-2.12-.007-.542-.082-1.08-.225-1.603-.045-.152-.116-.296-.21-.424-.065-.079-.145-.145-.234-.194-.077-.042-.156-.079-.238-.111l-1.359-.554c-.208-.08-.41-.174-.605-.282-.068-.037-.132-.083-.201-.13-.298-.212-.54-.494-.705-.822-.113-.343-.267-.672-.458-.979-.099-.109-.208-.21-.325-.3-.23-.193-.431-.421-.595-.674-.062-.081-.109-.174-.137-.273-.012-.074-.004-.15.023-.221.114-.402.316-.813.458-1.187-.055-.263-.106-.527-.161-.785-.109-.316-.109-.66 0-.975.257-.37 1.03.143 1.255-.272.132-.25 0-.785.256-.878.103-.018.21 0 .302.051.714.268 1.469.86 2.174 1.049.096.022.188.056.275.101l.069.046c.089.075.167.162.233.259.321.41.559.794.879 1.205 1.135.56 2.289 1.095 3.406 1.598.114.056.247.106.32.037.038-.06.059-.128.06-.198.011-.221-.01-.442-.064-.656-.017-.087-.062-.165-.128-.222l-.069-.028-.458-.147c-.041-.013-.081-.03-.119-.051-.026-.013-.049-.03-.069-.051-.048-.052-.088-.111-.119-.175-.165-.29-.259-.614-.274-.947 0-.287.142-.564.366-.56-.111-.48-.336-.927-.655-1.301-.187-.19-.389-.305-.581-.462-.058-.048-.108-.106-.146-.171-.031-.055-.052-.114-.065-.176-.059-.194-.119-.383-.21-.65l-.105-.093-.179-.092c-.054-.023-.106-.05-.156-.08-.08-.044-.151-.103-.21-.174-.142-.167-.229-.43-.458-.573-.069 0 0 .148 0 .25 0 .1-.032.34-.165.262-.226-.185-.412-.414-.549-.674-.307-.544-.554-1.12-.737-1.718-.023-.081-.054-.16-.092-.235-.036-.061-.077-.118-.123-.171-.15-.207-.334-.385-.545-.527-.03-.023-.067-.036-.105-.037-.092 0-.083.176 0 .31.192.462.7.702.833 1.15.078.245-.032.462-.211.406-.048-.012-.095-.032-.137-.06l-.151-.097c-.063-.04-.115-.096-.151-.162-.064-.138.037-.212.064-.318.02-.141-.013-.284-.092-.402-.075-.13-.166-.252-.27-.36-.27-.314-.554-.605-.837-.878-.077-.072-.162-.135-.252-.19-.075-.027-.158-.027-.234 0-.277.104-.539.246-.778.421-.18.089-.331.228-.435.4-.104.173-.156.373-.151.575 0 .092 0 .194-.027.235-.018.008-.038.013-.057.013-.02 0-.04-.004-.058-.013-.185-.009-.367-.06-.531-.148-.115-.07-.215-.165-.293-.277-.07-.11-.131-.226-.183-.346-.187-.425-.38-.85-.572-1.275-.05-.086-.085-.18-.105-.277 0-.124.087-.17.169-.208.163-.09.342-.15.527-.175.43-.032.947.258 1.419.365h.087l.027-.06c.019-.104.011-.21-.023-.31-.201-.115-.38-.05-.586-.166-.102-.067-.189-.154-.258-.255-.068-.102-.116-.216-.14-.336-.046-.231.041-.416.201-.425.113.006.222.043.316.106l.138.088c.041.029.083.055.128.078.1.075.223.111.348.102.21-.05.215-.402.325-.61.11-.207.416-.23.7-.064.15.09.281.209.385.35.036-.03.082-.048.13-.048s.094.017.131.049c.044.026.084.059.119.097.068.078.123.18.196.25.026.026.055.05.087.068.059.038.128.055.197.047.078-.021.152-.054.22-.097.114-.075.235-.137.362-.185.087-.02.166-.065.228-.13.032-.048.052-.104.056-.162.005-.058-.005-.117-.028-.17-.037-.083-.082-.152-.124-.23-.142-.269-.16-.592-.352-.804-.042-.047-.092-.086-.147-.116-.034-.022-.071-.04-.11-.055l-.105-.056c-.054-.031-.103-.07-.146-.115-.135-.177-.223-.385-.257-.605-.159.29-.202.63-.119.951.043.143.078.288.106.434 0 .139-.032.263-.133.254-.03-.004-.058-.015-.083-.032-.104-.075-.199-.161-.283-.259-.081-.072-.168-.135-.261-.189l-.165-.088-.165-.092c-.112-.06-.213-.14-.297-.236-.168-.177-.28-.4-.321-.642v-.115c0-.037.046-.046.073-.065.156-.106.179-.374.211-.614.038-.284.103-.564.192-.836l.032-.05.074.027.206.125c.192.115.389.212.581.31.079.042.167.066.256.069.06 0 .101-.033.16-.042.085-.009.17.01.243.055.067.042.127.093.179.153.187.256.321.549.393.859.074.306.244.58.486.78.045.028.096.046.128.023s.045-.134.078-.198c.1-.208.572.152.672-.065-.105-.143-.228-.259-.329-.406-.101-.148-.165-.365-.083-.434.083-.07.184 0 .284.069.472.288 1.003.462 1.552.508.215-.012.43.02.632.097.04.014.078.032.114.055.217.144.418.311.6.499.583.524 1.115 1.104 1.588 1.732.6.85.87 1.815 1.323 2.77.238.475.547.91.916 1.29.08.077.154.162.22.253.076.122.137.254.178.393l.371 1.025c.122.313.218.636.288.965.033.237.044.477.032.716-.042.859-.196 1.708-.457 2.526.09.32.135.651.132.984-.019.203-.072.401-.155.587-.229.572-.458 1.15-.682 1.731-.232.475-.268 1.023-.101 1.525l.458.35c.183-.208.286-.478.288-.757 0-.24.027-.559.233-.513.025.006.048.015.069.028.163.134.292.305.376.499.053.094.096.193.128.296.041.332-.215.461-.312.715l-.004.014z"/>
    <path fill="#12C32C" d="M120.227 87.287c-.059-.06-.123-.124-.187-.18-.09-.085-.161-.187-.211-.3-.028-.076-.07-.147-.124-.208-.041-.05-.09-.092-.146-.124-.101-.056-.206-.07-.252 0l-.032.087c-.018.068-.029.138-.032.208v.093l.055.11c.075.113.176.206.293.273h.023l.256.13.083.055.073.06.05.083c.029.042.066.077.11.101l.055.028c.05.01.101.01.151 0l.037-.028v-.041c-.013-.07-.04-.138-.078-.199-.038-.052-.079-.102-.124-.148zM115.224 77.233c.251.148.457 0 .709 0 .176.013.345.074.49.176l.165.101.133.079c.13.083.272.145.421.185.09.005.179.028.261.069.112.09.2.207.256.34.056.133.078.278.064.422-.053.202-.136.395-.247.573-.052.123-.073.257-.062.391.011.133.054.262.126.375.05.058.087.126.11.199.027.134-.105.134-.202.138-.242 0-.361.324-.251.684.109.36.315.61.425.924.11.314.092.545.206.817.189.382.481.702.843.924.041.311.161.607.348.859.064.078.142.145.228.198.066.047.143.076.224.083.08.008.161-.007.234-.041.093-.072.17-.162.226-.266.056-.103.09-.217.099-.334.022-.196.068-.389.138-.573.16-.347.54-.402.915-.356.248.077.512.077.76 0 .111-.112.176-.262.183-.42.007-.158-.045-.313-.146-.434-.147-.222-.362-.342-.513-.554-.125-.188-.193-.407-.197-.633.003-.187.019-.374.05-.559.033-.506-.045-1.014-.229-1.487-.076-.23-.191-.445-.338-.637-.139-.165-.309-.302-.499-.402l-.064-.042c-.664-.374-1.328-.674-1.987-1.057-.318-.186-.624-.393-.916-.62-.272-.227-.556-.44-.851-.636-.645-.374-1.506-.402-1.698.263-.027.242.013.486.115.707.101.22.261.409.462.544h.009zM137.183 110.767l-.042-.023c-.053-.024-.112-.029-.169-.015-.056.014-.106.047-.142.093-.133.134-.252.143-.481.051l-.457-.194c-.044-.023-.093-.035-.142-.037-.087 0-.128.097-.142.203-.014.106 0 .231 0 .342-.032.568-.522.688-.687 1.155-.012.035-.012.074 0 .11.014.064.039.125.074.181.04.1.105.189.187.258.035.021.074.033.115.037l.384.069c.163.034.331.034.495 0 .105-.035.198-.103.263-.194.066-.092.102-.201.103-.314-.01-.261.01-.523.059-.78.08-.135.2-.24.344-.3.059-.023.595-.434.238-.642zM138.895 102.126c-.032-.103-.075-.202-.128-.296-.084-.194-.213-.365-.376-.498-.021-.014-.044-.023-.068-.028-.206-.046-.22.272-.234.512-.002.28-.104.549-.288.758-.147-.12-.298-.236-.458-.351-.167-.502-.131-1.049.101-1.524.224-.582.457-1.16.682-1.732.083-.186.137-.384.16-.587-.001-.332-.047-.663-.137-.983.261-.819.415-1.668.457-2.526.012-.24.001-.48-.032-.716-.07-.33-.166-.652-.288-.966l-.371-1.025c-.041-.138-.101-.27-.178-.392-.066-.091-.14-.176-.22-.254-.369-.38-.678-.814-.916-1.289-.457-.923-.723-1.907-1.323-2.77-.473-.628-1.004-1.208-1.588-1.733-.182-.187-.383-.354-.6-.498-.035-.023-.074-.042-.114-.056-.202-.076-.417-.109-.632-.097-.549-.046-1.08-.22-1.552-.508-.1-.055-.219-.124-.283-.07-.065.056 0 .287.082.435.082.148.224.263.33.406-.101.218-.573-.143-.673.065-.032.065-.028.166-.078.199-.051.032-.083 0-.128-.023-.242-.2-.412-.475-.486-.78-.072-.311-.206-.603-.393-.86-.052-.06-.112-.111-.179-.152-.072-.045-.158-.065-.242-.056-.06 0-.101.037-.161.042-.089-.003-.177-.027-.256-.07-.192-.096-.389-.193-.581-.309l-.206-.125-.074-.027-.032.05c-.089.273-.154.552-.192.837-.032.24-.055.507-.21.614-.028 0-.06.027-.074.064v.144c.042.24.153.464.321.642.084.095.185.175.297.235l.165.092.165.088c.093.054.181.117.261.19.084.097.179.184.284.258.024.017.053.028.082.032.101 0 .146-.115.133-.254-.028-.146-.063-.291-.106-.434-.083-.32-.04-.661.119-.951.034.22.122.428.257.605.043.045.092.084.146.115l.106.056c.038.014.075.033.109.055.054.032.104.07.147.116.192.212.211.535.352.803.042.079.087.148.124.231.024.053.033.112.029.17-.005.058-.024.114-.056.163-.063.064-.142.11-.229.129-.127.049-.248.11-.362.185-.068.043-.142.076-.22.097-.069.008-.138-.008-.197-.046-.032-.02-.061-.043-.087-.07-.073-.069-.128-.17-.196-.25-.035-.037-.075-.07-.119-.096-.037-.031-.083-.048-.131-.048s-.094.017-.13.048c-.104-.142-.234-.261-.385-.351-.284-.166-.577-.162-.7.065-.124.226-.115.558-.325.61-.125.01-.249-.025-.348-.102-.044-.024-.087-.05-.128-.079l-.138-.088c-.093-.063-.203-.1-.315-.106-.161 0-.248.194-.202.425.052.244.197.458.403.596.201.11.38.046.586.166.024.1.024.205 0 .305l-.028.06h-.087c-.457-.106-.988-.397-1.419-.365-.184.025-.363.084-.526.175-.082.037-.165.084-.169.208.013.11.045.216.096.314.192.425.384.85.572 1.275.052.12.113.236.183.346.077.112.177.207.293.277.164.089.345.14.531.148.018.008.037.013.057.013.02 0 .039-.005.057-.013.046-.041.032-.143.028-.235-.005-.202.047-.402.151-.574.104-.173.255-.312.435-.4.239-.176.501-.318.778-.421.046-.016.096-.023.144-.019.049.004.097.019.14.042.071.048.139.102.201.162.284.272.568.563.838.877.104.109.195.23.27.36.079.118.111.261.092.402-.028.106-.129.18-.064.319.036.065.088.12.151.161l.151.097c.042.028.088.048.137.06.179.037.288-.161.211-.406-.133-.462-.641-.706-.834-1.15-.059-.134-.068-.305 0-.31.039.001.076.014.106.038.211.141.395.32.544.526.047.053.088.11.124.171.038.075.069.154.092.236.203.594.47 1.163.796 1.7.138.263.33.494.563.678.119.074.192-.116.151-.268-.041-.152-.078-.245.051-.222.16.116.247.38.389.545.058.072.13.131.21.176.05.03.102.056.156.078.059.033.119.06.22.12l.096.139.178.577c.012.062.034.121.064.176.039.065.089.123.147.17.192.176.394.292.581.462.319.375.544.822.655 1.303-.224 0-.366.272-.366.559.015.333.109.658.274.946.031.065.071.124.119.176.02.021.043.038.069.05.038.022.078.038.119.052l.458.147c.044.014.085.037.119.07.04.052.067.114.078.18.054.214.075.435.064.656-.001.07-.022.139-.06.198-.073.07-.206 0-.32-.037-1.136-.503-2.289-1.039-3.406-1.598-.32-.41-.559-.794-.879-1.205-.066-.097-.144-.184-.233-.259l-.069-.046c-.087-.045-.179-.08-.275-.102-.705-.189-1.46-.78-2.174-1.048-.092-.051-.199-.07-.302-.05-.243.092-.124.627-.257.877-.224.415-.998-.097-1.254.272-.109.316-.109.66 0 .975.055.258.105.522.16.785-.146.374-.348.785-.457 1.187-.027.07-.035.147-.023.221.028.1.074.192.137.273.164.253.365.48.595.674.117.09.226.191.325.3.191.307.345.636.458.979.165.328.407.61.705.822.069.047.133.093.201.13.195.108.397.202.605.281l1.345.55c.082.032.161.069.238.111.09.049.169.115.234.194.107.13.189.279.242.439.143.522.218 1.06.225 1.602.078.684.338 1.432.425 2.12.087.688-.457 1.062-.659 1.547-.066.145-.105.302-.114.462.011.23.054.456.128.674.183.628.362 1.261.545 1.894.02.09.054.178.1.258.053.082.118.155.193.217.221.193.455.37.7.531.039.024.083.037.128.037.055 0 .087-.046.115-.097.455-.725 1.075-1.332 1.808-1.768.204-.089.373-.243.481-.439.055-.161.086-.329.091-.499l.179-1.847c.059-.642.718-.799 1.085-1.118.177-.11.329-.258.444-.433.114-.176.189-.375.219-.583.032-.563-.293-1.307-.261-1.847l-.705-1.146c-.345-.462-.587-.995-.709-1.561-.014-.203.003-.407.05-.605.073-.35.142-.701.215-1.057.143.131.259.287.344.462l.773 1.27c.039.057.072.119.096.184.019.062.019.128 0 .19-.096.355-.361.591-.27 1.053.109.351.286.676.522.956.08.118.179.221.293.305.084.045.182.058.275.037.409-.072.782-.282 1.057-.596.081-.078.141-.175.174-.282.115-.365-.078-.965.051-1.316.087-.296.343-.425.247-.799z"/>
    <path fill="#12C32C" d="M123.647 113.538c-.391-.37-.657-.855-.76-1.386-.028-.152-.028-.3-.064-.462-.065-.226-.143-.448-.234-.665-.223-.55-.301-1.151-.224-1.741.046-.268.137-.489.165-.766.002-.458-.061-.914-.188-1.353-.033-.1-.042-.206-.027-.31.027-.102.119-.129.196-.162.486-.221.257-1.2.032-2.036-.029-.124-.026-.254.01-.376.035-.122.101-.233.192-.322.087-.106.14-.237.153-.374.013-.137-.015-.276-.08-.397-.103-.197-.262-.358-.458-.462-.225-.129-.469-.222-.723-.277-.241-.023-.477-.089-.696-.194-.079-.045-.151-.101-.215-.166-.231-.279-.421-.59-.563-.924-.119-.26-.302-.486-.531-.655-.043-.027-.092-.045-.142-.051-.101 0-.188.037-.316-.023-.134-.104-.239-.243-.302-.402-.072-.165-.164-.32-.275-.462-.046-.048-.098-.09-.155-.125-.084-.045-.174-.08-.266-.106-.09-.023-.178-.057-.261-.101-.058-.035-.11-.079-.155-.13-.11-.145-.206-.3-.289-.462-.248-.358-.572-.658-.947-.877-.396-.274-.703-.66-.884-1.109.042-.167.066-.34.074-.512-.02-.152-.071-.297-.149-.428-.079-.13-.185-.243-.309-.33-.038-.026-.082-.043-.128-.05-.02-.01-.041-.015-.062-.015-.022 0-.043.005-.062.015-.11.101.055.462.027.632-.027.171-.306.153-.526.037l-.078-.041c-.105-.06-.2-.134-.284-.222-.122-.149-.22-.315-.293-.494-.171-.327-.314-.668-.425-1.02-.109-.29-.109-.608 0-.897.028-.041.064-.076.106-.103.043-.027.09-.045.139-.053.049-.008.1-.005.148.008.048.012.094.034.133.065.048.028.092.06.133.097.068.08.145.15.229.213.023.015.05.023.078.023.132 0 .068-.277.114-.416.046-.138.188-.138.343-.046.091.053.172.122.238.203.19.265.366.539.527.822.143.18.276.368.398.564.069.191.18.365.325.508.133.078.243-.028.252-.185-.016-.2-.066-.395-.147-.577-.343-.924-.64-1.89-.485-2.591.041-.177.104-.348.188-.508.183-.384.398-.772.773-.85.144-.006.286-.033.422-.078.123-.07.174-.296.183-.49.147.134.308.252.48.35.144.085.298.15.458.195.128.037.261.055.339-.023.03-.032.054-.07.07-.111.015-.041.023-.085.021-.13-.005-.21-.052-.417-.14-.609-.087-.191-.212-.362-.368-.503-.187-.115-.344-.274-.457-.462-.032-.054-.048-.116-.048-.178 0-.063.016-.124.048-.178.03-.037.07-.066.115-.084.045-.016.093-.021.141-.013.162.013.318.064.458.148.078.05.152.103.224.162.245.225.429.51.536.826.047.301.136.593.265.869.068.1.157.186.261.249.057.034.119.057.183.07.132.017.265-.014.375-.088.08-.037.146-.097.19-.174.043-.076.062-.164.053-.251-.031-.191-.11-.37-.229-.522-.117-.155-.244-.301-.38-.439-.387-.427-.716-.904-.979-1.418-.17-.332-.316-.674-.495-1.007-.209-.4-.486-.76-.819-1.062-.093-.08-.192-.153-.298-.217-.189-.125-.416-.177-.641-.148-.073.029-.155.029-.228 0-.152-.13-.28-.286-.376-.461-.177-.264-.408-.486-.677-.652-.206-.12-.385-.147-.458 0-.073.148.041.531.087.813.046.18.034.37-.034.541-.069.172-.19.318-.346.415-.043.017-.08.048-.105.088-.064.152.132.434.215.67.082.235.041.461-.096.494-.043.011-.087.014-.131.007-.043-.008-.085-.024-.121-.049-.093-.058-.172-.135-.234-.226-.26-.388-.187-.878-.457-1.28-.17-.267-.431-.401-.627-.641-.242-.324-.377-.717-.385-1.123-.04-.32.028-.646.192-.923.092-.111.221-.183.362-.203.142-.02.285.015.403.096l.229.153c.078.061.161.117.247.166.16.083.339.083.366-.083.013-.08.013-.16 0-.24-.055-.242-.055-.493 0-.734.064-.176.234-.259.458-.111.185.165.304.394.334.642.018.188-.024.377-.119.54-.034.046-.056.1-.064.157.006.135.056.265.142.37.082.102.177.192.284.267.145.114.298.217.457.31.191.139.427.198.66.166.034-.005.066-.019.092-.04.027-.023.047-.052.059-.085.024-.112.032-.227.022-.341 0-.324.234-.462.321-.735.07-.328.026-.67-.124-.97-.15-.332-.391-.614-.695-.812-.166-.093-.345-.157-.531-.19-.202-.04-.395-.113-.573-.217-.111-.07-.207-.165-.279-.277-.074-.148-.133-.303-.178-.462-.049-.15-.145-.28-.275-.37-.11-.036-.174.056-.22.144-.071.12-.122.251-.151.388-.05.295.041.683 0 .974-.027.12-.114.218-.256.13-.054-.053-.098-.116-.128-.185-.074-.154-.111-.323-.106-.494 0-.231.128-.434 0-.693-.044-.092-.114-.169-.201-.222-.04-.026-.087-.042-.135-.046-.048-.004-.096.004-.14.023-.129.121-.21.285-.229.462-.046-.138-.125-.263-.229-.365l-.096-.106c-.025-.06-.037-.124-.036-.19-.042-.24-.173-.454-.367-.6l-.068-.046c-.063-.04-.133-.066-.207-.076-.073-.01-.148-.005-.219.016-.229.065-.375.342-.27.711.082.291.302.62.256.85-.037-.035-.079-.066-.123-.092-.188-.111-.362-.056-.362.175l-.069-.032c-.309-.242-.552-.56-.704-.924-.169-.402-.404-.772-.696-1.094-.202-.176-.426-.254-.627-.43-.133.157-.261.323-.38.49-.02.025-.039.051-.055.078l-.041.051-.078.11c-.297.437-.565.892-.801 1.363-.032.227-.069.462-.097.68-.133.75-.173 1.515-.119 2.276.118.789.278 1.57.481 2.341.174.786.421 1.848.147 2.31-.126.19-.216.4-.266.623-.05.295-.008.598.119.868.156.342.426.615.604.924.344.637.266 1.27.403 1.921.162.697.51 1.337 1.007 1.847.071.07.149.13.234.18.151.088.297.107.329-.041.032-.148-.137-.462-.283-.665-.365-.514-.672-1.067-.916-1.649-.05-.11-.082-.226-.096-.346 0-.106.059-.185.151-.143.211.283.366.605.458.947.128.287.337.53.599.701.081.048.169.08.261.093.081 0 .161.02.234.055.054.036.106.074.155.116.518.397.972.872 1.346 1.408.281.487.524.995.728 1.52.197.526.51 1 .916 1.385.057.045.119.085.183.12.262.129.533.24.81.333.072.033.142.07.21.11.37.224.698.51.971.846-.421.25-.604.923-.458 1.662.046.24.119.49.147.721.017.337.003.676-.042 1.011-.024.391.079.778.293 1.104.271.383.71.61.856 1.039.051.152.046.296.092.462.133.365.389.671.723.864.318.161.608.375.856.632.399.462.495 1.132.687 1.714.117.346.27.679.458.993.263.354.476.744.631 1.159.026.227.072.451.138.669.133.319.458.564.54.887.033.135.052.273.059.411.092.405.298.775.596 1.062.265.253.562.469.883.642l.966.578c.169.097.366.18.435.046.068-.134-.046-.425-.197-.601-.171-.183-.355-.354-.549-.512z"/>
    <g fill="#fff" opacity=".3">
        <path d="M120.227 87.287c-.059-.06-.123-.124-.187-.18-.09-.085-.161-.187-.211-.3-.028-.076-.07-.147-.124-.208-.041-.05-.09-.092-.146-.124-.101-.056-.206-.07-.252 0l-.032.087c-.018.068-.029.138-.032.208v.092l.055.111c.075.113.176.206.293.273h.023l.256.129.083.055.073.06.05.084c.029.042.066.076.11.101l.055.028c.05.01.101.01.151 0l.037-.028v-.041c-.013-.071-.04-.138-.078-.199-.038-.052-.079-.102-.124-.148zM115.224 77.233c.251.148.457 0 .709 0 .176.013.345.074.49.176l.165.101.133.079c.13.083.272.145.421.185.09.005.179.028.261.069.112.09.2.207.256.34.056.133.078.278.064.422-.053.202-.136.395-.247.573-.052.123-.073.257-.062.39.011.135.054.263.126.376.05.058.087.126.11.199.027.134-.105.134-.202.138-.242 0-.361.324-.251.684.11.36.316.61.425.924.11.314.092.544.206.817.189.382.481.702.843.924.041.311.161.607.348.859.064.078.142.145.228.198.066.047.143.076.224.083.08.008.161-.007.234-.041.093-.072.17-.162.226-.266.056-.103.09-.217.099-.334.022-.197.068-.389.138-.573.16-.347.54-.402.915-.356.248.077.512.077.76 0 .111-.112.176-.262.183-.42.007-.158-.045-.313-.146-.434-.147-.222-.362-.342-.513-.554-.125-.188-.193-.407-.197-.633.003-.187.019-.374.05-.559.034-.507-.045-1.014-.228-1.487-.077-.23-.192-.445-.339-.637-.139-.165-.309-.302-.499-.402l-.064-.042c-.664-.374-1.328-.674-1.987-1.057-.318-.186-.624-.393-.916-.62-.272-.227-.556-.44-.851-.636-.645-.374-1.506-.402-1.698.263-.027.242.013.486.115.707.101.22.261.409.462.544h.009zM137.183 110.767l-.042-.023c-.053-.024-.112-.029-.169-.015-.056.014-.106.047-.142.093-.133.134-.252.143-.48.051l-.458-.194c-.044-.023-.093-.035-.142-.037-.087 0-.128.097-.142.203-.014.106 0 .231 0 .342-.032.568-.522.688-.687 1.155-.012.035-.012.074 0 .11.014.064.039.125.074.18.04.101.105.19.187.259.035.021.074.033.115.037l.384.069c.163.034.332.034.495 0 .106-.035.198-.103.263-.194.066-.092.102-.201.103-.314-.01-.261.01-.523.059-.78.08-.135.2-.24.344-.3.059-.023.595-.434.238-.642zM138.895 102.126c-.032-.103-.075-.202-.128-.296-.084-.194-.213-.365-.376-.498-.021-.014-.044-.023-.068-.028-.206-.046-.22.272-.234.512-.002.28-.104.549-.288.758-.147-.12-.298-.236-.458-.351-.167-.502-.131-1.049.101-1.524.224-.582.457-1.16.682-1.732.083-.186.137-.384.16-.587-.001-.332-.047-.663-.137-.983.261-.819.415-1.668.457-2.526.012-.24.001-.48-.032-.716-.07-.33-.166-.652-.288-.966l-.371-1.025c-.041-.138-.101-.27-.178-.392-.066-.091-.14-.176-.22-.254-.369-.38-.678-.814-.916-1.289-.457-.924-.723-1.907-1.323-2.77-.472-.628-1.004-1.208-1.588-1.733-.181-.187-.383-.354-.6-.498-.035-.023-.074-.042-.114-.056-.202-.076-.417-.109-.632-.097-.549-.046-1.08-.22-1.552-.508-.1-.055-.219-.124-.283-.07-.065.056 0 .287.082.435.082.148.224.263.33.406-.101.218-.573-.143-.673.065-.032.065-.028.166-.078.199-.051.032-.083 0-.128-.023-.242-.2-.412-.475-.486-.78-.072-.311-.206-.603-.393-.86-.052-.06-.112-.111-.179-.152-.072-.045-.158-.065-.242-.056-.06 0-.101.037-.161.042-.089-.003-.177-.027-.256-.07-.192-.096-.389-.193-.581-.309l-.206-.125-.074-.027-.032.05c-.089.272-.154.552-.192.836-.032.24-.055.508-.21.615-.028 0-.06.027-.074.064v.144c.042.24.153.464.321.641.084.096.185.176.297.236l.165.092.165.088c.093.054.181.117.261.19.084.097.179.184.284.258.024.017.053.028.082.032.101 0 .147-.115.133-.254-.028-.146-.063-.291-.106-.434-.083-.32-.04-.661.12-.951.033.22.121.428.256.605.043.045.092.084.146.115l.106.056c.038.014.075.033.11.055.053.032.103.07.146.116.192.212.211.535.352.803.042.079.087.148.124.231.024.053.033.112.029.17-.005.058-.024.114-.056.163-.063.064-.142.11-.229.129-.127.048-.248.11-.362.185-.068.043-.142.076-.22.097-.069.008-.138-.008-.196-.046-.033-.02-.062-.043-.087-.07-.074-.07-.129-.17-.197-.25-.035-.037-.075-.07-.119-.096-.037-.031-.083-.048-.131-.048s-.094.017-.13.048c-.104-.142-.234-.261-.385-.351-.284-.166-.577-.162-.7.065-.124.226-.115.558-.325.61-.125.01-.249-.025-.348-.103-.044-.023-.087-.05-.128-.078l-.138-.088c-.093-.063-.203-.1-.315-.106-.161 0-.248.194-.202.425.052.244.197.458.403.596.201.11.38.046.586.166.024.1.024.205 0 .305l-.028.06h-.087c-.457-.106-.988-.397-1.419-.365-.184.025-.363.084-.526.175-.082.037-.165.084-.169.208.013.11.045.216.096.314.192.425.384.85.572 1.275.052.12.113.236.183.346.078.112.177.207.293.277.164.089.345.14.531.148.018.008.038.013.057.013.02 0 .04-.005.057-.013.046-.041.033-.143.028-.235-.005-.202.047-.402.151-.575.104-.172.255-.311.435-.4.239-.175.501-.317.778-.42.046-.016.096-.023.144-.019.049.004.097.019.14.042.071.048.139.102.201.162.284.272.568.563.838.877.104.109.195.23.27.36.079.118.111.261.092.402-.028.106-.129.18-.064.319.036.065.088.12.151.161l.151.097c.042.028.088.048.137.06.179.037.288-.161.211-.406-.133-.462-.641-.706-.834-1.15-.059-.134-.068-.305 0-.31.039.001.076.014.106.038.211.141.395.32.544.526.047.053.088.11.124.171.038.075.069.154.092.236.203.594.47 1.163.796 1.7.138.263.33.494.563.678.119.074.192-.116.151-.268-.041-.152-.078-.245.051-.222.16.116.247.38.389.545.058.072.13.131.21.176.05.03.102.056.156.078.059.033.119.06.22.12l.096.139.178.577c.012.062.034.121.064.176.039.065.089.123.147.17.192.176.394.292.581.462.319.375.544.822.655 1.303-.224 0-.366.272-.366.559.015.333.109.658.274.946.031.065.071.124.119.176.02.021.043.038.069.05.038.022.078.038.119.052l.458.147c.044.014.085.037.119.07.04.052.067.114.078.18.054.214.075.435.064.656-.001.07-.022.139-.06.198-.073.07-.206 0-.32-.037-1.136-.503-2.289-1.039-3.406-1.598-.32-.41-.559-.794-.879-1.205-.066-.097-.144-.184-.233-.259l-.069-.046c-.087-.045-.179-.08-.275-.102-.705-.189-1.46-.78-2.174-1.048-.092-.051-.199-.07-.302-.05-.243.092-.124.627-.257.877-.224.415-.997-.097-1.254.272-.109.316-.109.66 0 .975.055.258.105.522.16.785-.146.374-.348.785-.457 1.187-.027.07-.035.147-.023.221.028.1.074.192.137.273.164.253.365.48.595.674.117.09.226.19.325.3.191.307.345.636.458.979.165.328.407.61.705.822.069.047.133.093.201.13.195.108.397.202.605.281l1.345.55c.082.032.161.069.238.111.09.049.169.115.234.194.107.13.189.279.242.439.143.522.218 1.06.225 1.602.078.684.339 1.432.425 2.12.087.688-.457 1.062-.659 1.547-.066.145-.105.302-.114.462.011.23.055.456.128.674.183.628.362 1.261.545 1.894.02.09.054.178.1.258.053.082.118.155.193.217.221.193.455.37.7.531.039.024.083.037.128.037.055 0 .087-.046.115-.097.455-.726 1.075-1.332 1.808-1.768.204-.089.373-.243.481-.439.055-.161.086-.329.091-.499l.179-1.847c.059-.642.718-.799 1.085-1.118.177-.11.329-.258.444-.433.114-.176.189-.375.219-.583.032-.563-.293-1.307-.261-1.847l-.705-1.146c-.345-.462-.587-.995-.709-1.561-.014-.203.003-.407.05-.605.074-.351.142-.702.215-1.057.143.131.259.287.344.462l.773 1.27c.039.057.072.119.096.184.019.062.019.128 0 .19-.096.355-.361.591-.27 1.053.109.351.286.676.522.956.08.118.179.221.293.305.084.045.182.058.275.037.409-.072.782-.282 1.057-.596.081-.078.141-.175.174-.282.115-.365-.078-.965.051-1.316.087-.296.343-.425.247-.799z" opacity=".3"/>
        <path d="M123.647 113.538c-.391-.37-.657-.855-.76-1.386-.028-.152-.028-.3-.064-.462-.065-.226-.143-.448-.234-.665-.223-.55-.301-1.151-.224-1.741.046-.268.137-.489.165-.766.003-.458-.061-.914-.188-1.354-.033-.099-.042-.205-.027-.309.027-.102.119-.129.196-.162.486-.221.257-1.2.032-2.036-.029-.124-.026-.254.01-.376.035-.122.101-.233.192-.322.087-.106.14-.237.153-.374.013-.137-.015-.276-.08-.397-.103-.197-.262-.358-.458-.462-.225-.129-.469-.222-.723-.277-.241-.023-.477-.089-.696-.194-.079-.045-.151-.101-.215-.166-.231-.279-.421-.59-.563-.924-.119-.26-.302-.486-.531-.655-.043-.028-.091-.045-.142-.051-.101 0-.188.037-.316-.023-.134-.104-.239-.243-.302-.402-.072-.165-.164-.32-.275-.462-.046-.048-.098-.09-.155-.125-.084-.045-.174-.08-.266-.106-.09-.023-.178-.057-.261-.101-.058-.035-.11-.079-.155-.13-.11-.145-.206-.3-.289-.462-.248-.358-.572-.658-.947-.877-.396-.274-.703-.66-.884-1.109.042-.168.066-.34.074-.512-.02-.152-.071-.297-.149-.428-.079-.13-.185-.243-.309-.33-.038-.026-.082-.044-.128-.05-.02-.01-.041-.015-.062-.015-.022 0-.043.005-.062.015-.11.101.055.462.028.632-.028.171-.307.153-.527.037l-.078-.041c-.105-.06-.2-.134-.284-.222-.122-.149-.22-.315-.293-.494-.171-.327-.314-.668-.425-1.02-.109-.29-.109-.608 0-.897.028-.041.064-.077.106-.103.043-.027.09-.045.139-.053.049-.008.1-.005.148.007.048.013.094.035.133.066.048.028.092.06.133.097.068.08.145.15.229.213.023.015.05.023.078.023.132 0 .068-.277.114-.416.046-.139.188-.139.343-.046.091.053.172.122.238.203.19.265.366.539.527.822.143.18.276.368.398.564.069.191.18.365.325.508.133.078.243-.028.252-.185-.016-.2-.066-.395-.147-.577-.343-.924-.64-1.89-.485-2.591.041-.177.104-.348.188-.508.183-.384.398-.772.774-.85.143-.006.285-.033.421-.079.123-.069.174-.295.183-.49.147.135.308.253.48.352.144.084.298.15.458.194.128.037.261.055.339-.023.03-.032.054-.07.07-.111.015-.041.023-.085.021-.13-.005-.21-.052-.417-.14-.609-.087-.191-.212-.363-.368-.503-.187-.115-.343-.274-.457-.462-.032-.054-.048-.116-.048-.178 0-.063.016-.124.048-.178.03-.038.07-.066.115-.084.045-.017.094-.021.141-.013.162.013.318.064.458.148.078.05.153.103.224.162.245.225.429.51.536.826.047.301.136.593.265.868.068.102.157.187.261.25.057.034.119.057.183.07.132.017.265-.015.375-.089.08-.036.146-.096.19-.173.043-.076.062-.164.053-.251-.031-.191-.11-.37-.229-.522-.117-.155-.244-.301-.38-.44-.387-.426-.716-.903-.979-1.417-.17-.332-.316-.674-.495-1.007-.209-.4-.486-.76-.819-1.062-.093-.08-.192-.153-.298-.217-.189-.125-.416-.177-.641-.148-.073.029-.155.029-.228 0-.152-.13-.28-.286-.376-.461-.177-.264-.408-.486-.677-.652-.206-.12-.385-.147-.458 0-.073.148.041.531.087.813.046.18.034.37-.034.541-.069.172-.19.317-.346.415-.043.017-.08.048-.105.088-.064.152.132.434.215.67.082.235.041.461-.096.494-.043.011-.087.014-.131.007-.043-.008-.085-.024-.121-.049-.093-.058-.172-.135-.234-.226-.26-.388-.187-.878-.457-1.28-.17-.267-.431-.401-.627-.641-.242-.324-.377-.717-.385-1.123-.04-.32.028-.646.192-.923.092-.111.221-.183.362-.203.142-.02.285.015.403.096l.229.153c.078.061.161.117.247.166.16.083.339.083.366-.083.013-.08.013-.16 0-.24-.054-.242-.054-.493 0-.735.064-.175.234-.258.458-.11.185.165.304.394.334.642.018.188-.024.377-.119.54-.034.046-.056.1-.064.157.006.135.056.265.142.37.082.102.177.192.284.267.145.114.298.217.457.31.191.138.427.198.66.166.034-.005.066-.019.092-.041.027-.022.047-.05.059-.084.024-.112.032-.227.023-.341 0-.324.233-.462.32-.735.07-.328.026-.67-.124-.97-.15-.332-.391-.614-.695-.812-.166-.093-.345-.157-.531-.19-.202-.04-.395-.113-.573-.217-.111-.07-.207-.165-.279-.277-.074-.148-.133-.303-.178-.462-.049-.15-.145-.28-.275-.37-.11-.036-.174.056-.22.144-.071.12-.122.251-.151.388-.05.295.041.683 0 .974-.027.12-.114.217-.256.13-.054-.053-.098-.116-.128-.185-.074-.154-.111-.323-.106-.494 0-.231.129-.434 0-.693-.044-.092-.114-.169-.201-.222-.04-.026-.087-.042-.135-.046-.047-.004-.096.004-.14.023-.129.121-.21.285-.229.462-.046-.138-.125-.263-.229-.365l-.096-.106c-.025-.06-.037-.124-.036-.19-.042-.24-.173-.454-.366-.6l-.069-.046c-.063-.04-.133-.066-.207-.076-.073-.01-.148-.005-.219.016-.229.065-.375.342-.27.711.082.291.302.62.256.85-.037-.035-.079-.066-.123-.092-.188-.111-.362-.056-.362.175l-.068-.032c-.31-.242-.553-.56-.705-.924-.169-.402-.404-.772-.696-1.094-.202-.176-.426-.254-.627-.43-.133.157-.261.323-.38.49-.02.025-.038.051-.055.078l-.041.051-.078.11c-.297.437-.565.892-.801 1.363-.032.227-.069.462-.096.68-.134.75-.174 1.515-.12 2.276.118.789.278 1.57.481 2.341.174.785.421 1.848.147 2.31-.126.19-.216.4-.266.623-.05.295-.008.598.119.868.156.342.426.615.604.924.344.637.266 1.27.403 1.921.162.697.51 1.336 1.007 1.847.071.07.149.13.234.18.151.088.297.107.329-.041.032-.148-.137-.462-.283-.665-.365-.514-.672-1.067-.916-1.649-.05-.11-.082-.226-.096-.346 0-.106.059-.185.151-.143.211.283.366.605.458.947.128.287.337.53.599.701.081.048.169.08.261.093.081 0 .161.02.234.055.054.036.106.074.155.116.518.397.972.872 1.346 1.408.281.487.525.995.728 1.52.197.526.51 1 .916 1.385.057.045.119.085.183.12.262.129.533.24.81.333.072.033.142.07.211.11.369.224.697.51.97.846-.421.25-.604.923-.458 1.662.046.24.119.49.147.721.017.337.003.676-.041 1.011-.025.39.078.778.292 1.104.271.383.71.61.856 1.039.051.152.046.296.092.462.133.365.389.671.723.863.319.162.608.376.856.633.399.462.495 1.132.687 1.714.117.346.27.679.458.993.264.354.476.744.631 1.159.026.227.072.451.138.669.133.319.458.564.54.887.033.135.052.272.059.411.092.405.298.775.596 1.062.265.253.562.469.883.642l.966.578c.169.097.366.18.435.046.068-.134-.046-.425-.197-.601-.171-.183-.355-.354-.549-.512z" opacity=".3"/>
    </g>
    <path fill="#fff" d="M133.704 114.586l2.966 5.182-1.231.711-2.971-5.186c-1.474.517-3.269.161-5.063-.883-2.379-1.494-4.338-3.578-5.69-6.054-3.154-5.477-3.118-11.398.05-13.245 1.579-.924 3.662-.615 5.713.59 2.38 1.495 4.341 3.58 5.695 6.055 2.911 5.136 3.09 10.646.531 12.83zm-1.809-1.723c2.477-1.427 2.491-6.077.033-10.377-1.066-1.943-2.605-3.578-4.473-4.752-1.62-.924-3.241-1.173-4.477-.462-2.476 1.422-2.49 6.073-.032 10.373 1.062 1.942 2.601 3.576 4.468 4.747 1.62.924 3.246 1.173 4.481.462"/>
    <path fill="#F0F0F0" d="M136.977 119.588l8.734 15.24c.508.887.503 1.847 0 2.138-.148.064-.31.089-.47.072-.161-.017-.314-.075-.446-.169-.383-.241-.699-.578-.915-.979l-8.73-15.24.307-.18 1.231-.712.289-.17z"/>
    <path fill="#12C32C" d="M104.228 117.366l.582 1.363 4.811 2.798-.019 7.159-8.972-5.224.018-6.793.005-.365v-1.021l3.575 2.083zM100.63 125.518l8.972 5.223v-.804l-8.972-5.223v.804zM100.63 126.39v.804l4.756 2.766v-.803l-4.756-2.767z"/>
    <path fill="#fff" d="M100.63 125.518l8.972 5.223v-.804l-8.972-5.223v.804zM100.63 126.39v.804l4.756 2.766v-.803l-4.756-2.767z" opacity=".2"/>
    <path fill="#12C32C" d="M118.25 125.564l.581 1.357 4.811 2.804-.023 7.158-8.967-5.228.018-6.789v-.365l.005-1.02 3.575 2.083zM114.652 133.71l8.967 5.228v-.803l-8.967-5.228v.803zM114.652 134.583v.804l4.751 2.771v-.804l-4.751-2.771z"/>
    <path fill="#fff" d="M114.652 133.71l8.967 5.228v-.803l-8.967-5.228v.803zM114.652 134.583v.804l4.751 2.771v-.804l-4.751-2.771z" opacity=".2"/>
    <path fill="#12C32C" d="M132.266 133.756l.586 1.363 4.811 2.799-.022 7.158-8.968-5.223.018-6.794v-.365l.005-1.02 3.57 2.082zM128.673 141.908l8.968 5.223v-.804l-8.968-5.223v.804zM128.673 142.781v.803l4.752 2.767v-.804l-4.752-2.766z"/>
    <path fill="#fff" d="M128.673 141.908l8.968 5.223v-.804l-8.968-5.223v.804zM128.673 142.781v.803l4.752 2.767v-.804l-4.752-2.766z" opacity=".2"/>
    <path fill="#12C32C" d="M146.288 141.954l.586 1.358 4.806 2.803-.018 7.158-8.972-5.223.022-6.793v-1.386l3.576 2.083zM142.69 150.101l8.972 5.228v-.804l-8.972-5.228v.804zM142.69 150.973v.804l4.756 2.771v-.804l-4.756-2.771z"/>
    <path fill="#fff" d="M142.69 150.101l8.972 5.228v-.804l-8.972-5.228v.804zM142.69 150.973v.804l4.756 2.771v-.804l-4.756-2.771z" opacity=".2"/>
    <path fill="#12C32C" d="M104.228 132.034l.582 1.358 4.811 2.803-.019 7.158-8.972-5.223.018-6.793.005-.365v-1.021l3.575 2.083zM100.63 140.185l8.972 5.223v-.803l-8.972-5.223v.803zM100.63 141.058v.804l4.756 2.766v-.804l-4.756-2.766z"/>
    <path fill="#fff" d="M100.63 140.185l8.972 5.223v-.803l-8.972-5.223v.803zM100.63 141.058v.804l4.756 2.766v-.804l-4.756-2.766z" opacity=".2"/>
    <path fill="#12C32C" d="M118.25 140.227l.581 1.362 4.811 2.803-.023 7.159-8.967-5.228.018-6.789v-.37l.005-1.016 3.575 2.079zM114.652 148.378l8.967 5.228v-.804l-8.967-5.228v.804zM114.652 149.251v.803l4.751 2.771v-.803l-4.751-2.771z"/>
    <path fill="#fff" d="M114.652 148.378l8.967 5.228v-.804l-8.967-5.228v.804zM114.652 149.251v.803l4.751 2.771v-.803l-4.751-2.771z" opacity=".2"/>
    <path fill="#12C32C" d="M132.266 148.424l.586 1.363 4.811 2.798-.022 7.159-8.968-5.224.018-6.793v-.365l.005-1.021 3.57 2.083zM128.673 156.576l8.968 5.223v-.804l-8.968-5.223v.804zM128.673 157.448v.804l4.752 2.766v-.803l-4.752-2.767z"/>
    <path fill="#fff" d="M128.673 156.576l8.968 5.223v-.804l-8.968-5.223v.804zM128.673 157.448v.804l4.752 2.766v-.803l-4.752-2.767z" opacity=".2"/>
    <path fill="#12C32C" d="M146.288 156.622l.586 1.357 4.806 2.804-.018 7.158-8.972-5.228.022-6.789v-1.385l3.576 2.083zM142.69 164.768l8.972 5.228v-.803l-8.972-5.228v.803zM142.69 165.641v.804l4.756 2.771v-.804l-4.756-2.771z"/>
    <path fill="#fff" d="M142.69 164.768l8.972 5.228v-.803l-8.972-5.228v.803zM142.69 165.641v.804l4.756 2.771v-.804l-4.756-2.771z" opacity=".2"/>
    <path fill="#fff" d="M104.228 117.366l-3.575-2.083v1.021l-.005.365-.018 6.793 8.972 5.224.019-7.159-4.811-2.798-.582-1.363zM109.602 129.937l-8.972-5.223v.804l8.972 5.223v-.804zM105.386 129.157l-4.756-2.767v.804l4.756 2.766v-.803zM118.25 125.564l-3.575-2.083-.005 1.02v.365l-.018 6.789 8.967 5.228.023-7.158-4.811-2.804-.581-1.357zM123.619 138.135l-8.967-5.228v.803l8.967 5.228v-.803zM119.403 137.354l-4.751-2.771v.804l4.751 2.771v-.804zM132.266 133.756l-3.57-2.082-.005 1.02v.365l-.018 6.794 8.968 5.223.022-7.158-4.811-2.799-.586-1.363zM137.641 146.327l-8.968-5.223v.804l8.968 5.223v-.804zM133.425 145.547l-4.752-2.766v.803l4.752 2.767v-.804zM151.68 146.115l-4.806-2.803-.586-1.358-3.576-2.083v1.386l-.022 6.793 8.972 5.223.018-7.158zM151.662 154.525l-8.972-5.228v.804l8.972 5.228v-.804zM147.446 153.744l-4.756-2.771v.804l4.756 2.771v-.804zM104.228 132.034l-3.575-2.083v1.021l-.005.365-.018 6.793 8.972 5.223.019-7.158-4.811-2.803-.582-1.358zM100.63 140.185l8.972 5.223v-.803l-8.972-5.223v.803zM100.63 141.862l4.756 2.766v-.804l-4.756-2.766v.804zM118.25 140.227l-3.575-2.079-.005 1.016v.37l-.018 6.789 8.967 5.228.023-7.159-4.811-2.803-.581-1.362zM114.652 148.378l8.967 5.228v-.804l-8.967-5.228v.804zM114.652 150.054l4.751 2.771v-.803l-4.751-2.771v.803zM132.266 148.424l-3.57-2.083-.005 1.021v.365l-.018 6.793 8.968 5.224.022-7.159-4.811-2.798-.586-1.363zM128.673 156.576l8.968 5.223v-.804l-8.968-5.223v.804zM128.673 158.252l4.752 2.766v-.803l-4.752-2.767v.804zM146.288 156.622l-3.576-2.083v1.385l-.022 6.789 8.972 5.228.018-7.158-4.806-2.804-.586-1.357zM142.69 164.768l8.972 5.228v-.803l-8.972-5.228v.803zM142.69 166.445l4.756 2.771v-.804l-4.756-2.771v.804z" opacity=".3"/>
    <path fill="#12C32C" d="M127.359 200.906c0 1.469-.943 2.937-2.852 4.06-3.827 2.24-10.043 2.24-13.893 0-1.923-1.123-2.889-2.591-2.898-4.06v2.937c0 1.469.975 2.938 2.898 4.055 3.85 2.245 10.071 2.245 13.893 0 1.909-1.117 2.861-2.586 2.852-4.055v-2.937z"/>
    <path fill="#12C32C" d="M110.614 204.966c3.85 2.24 10.071 2.24 13.893 0 1.909-1.123 2.861-2.591 2.852-4.06-.009-1.468-.975-2.937-2.898-4.059-3.849-2.24-10.07-2.24-13.893 0-1.909 1.122-2.861 2.591-2.852 4.059.01 1.469.975 2.937 2.898 4.06z"/>
    <path fill="#000" d="M127.359 200.906c0 1.469-.943 2.937-2.852 4.06-3.827 2.24-10.043 2.24-13.893 0-1.923-1.123-2.889-2.591-2.898-4.06v2.937c0 1.469.975 2.938 2.898 4.055 3.85 2.245 10.071 2.245 13.893 0 1.909-1.117 2.861-2.586 2.852-4.055v-2.937z" opacity=".1"/>
    <path fill="#000" d="M110.614 204.966c3.85 2.24 10.071 2.24 13.893 0 1.909-1.123 2.861-2.591 2.852-4.06-.009-1.468-.975-2.937-2.898-4.059-3.849-2.24-10.07-2.24-13.893 0-1.909 1.122-2.861 2.591-2.852 4.059.01 1.469.975 2.937 2.898 4.06z" opacity=".3"/>
    <path fill="#000" d="M112.61 202.324c2.746 1.598 7.168 1.598 9.888 0 1.373-.799 2.037-1.847 2.032-2.886-.005-1.039-.696-2.092-2.064-2.891-2.747-1.598-7.169-1.598-9.888 0-1.373.799-2.037 1.847-2.033 2.891.005 1.043.692 2.087 2.065 2.886z" opacity=".2"/>
    <path fill="#455A64" d="M131.887 193.643c7.923-7.994 7.923-20.953 0-28.947-7.923-7.993-20.769-7.993-28.692 0-7.923 7.994-7.923 20.953 0 28.947 7.923 7.993 20.769 7.993 28.692 0z"/>
    <path fill="#12C32C" d="M98.781 173.778c.125.673.302 1.333.531 1.977.197.656.458 1.529.17 2.138-.13.234-.226.484-.289.744-.03.13-.035.265-.012.397.023.132.072.258.145.37.174.24.458.355.673.572.38.416.293 1.067.457 1.612.082.274.225.525.419.733.194.208.433.368.698.468.229.083.563.06.614-.18.05-.241-.151-.361-.312-.462-.399-.291-.739-.656-1.002-1.076-.06-.083-.098-.18-.11-.282-.001-.05.014-.098.044-.138.03-.039.073-.067.121-.079.27.088.334.429.494.66.105.146.255.253.427.304.171.051.354.043.521-.022.06-.029.123-.054.188-.074.08-.008.161 0 .238.023.535.079 1.045.283 1.487.596.314.315.586.669.811 1.053.227.386.595.668 1.025.785.368.014.737-.025 1.094-.115.45-.048.904.041 1.305.254-.231.24-.398.536-.487.858-.089.323-.096.663-.021.989.045.208.128.406.16.614.018.332.004.664-.041.993-.022.165-.003.332.054.488.056.156.149.296.271.408.297.217.787.18.947.517.055.116.055.254.101.374.079.141.197.256.339.333.141.076.302.109.462.097.32-.03.642.013.943.125.458.235.549.808.764 1.26.124.262.299.496.513.689.261.235.586.429.7.762.031.194.083.385.156.568.147.231.485.295.595.549.036.116.061.235.073.356.044.161.127.309.242.429.116.121.259.21.418.259.315.097.645.139.975.125h1.03c.192 0 .43 0 .512-.194.026-.091.017-.188-.023-.273-.041-.085-.11-.152-.196-.189-.179-.064-.363-.113-.55-.148-.204-.062-.389-.177-.536-.333-.147-.156-.251-.349-.301-.558-.028-.134-.032-.273-.074-.407-.069-.179-.157-.351-.261-.512-.257-.47-.345-1.015-.247-1.543.051-.277.151-.549.174-.827.009-.406-.061-.811-.206-1.191-.039-.088-.052-.186-.036-.282.046-.11.124-.203.224-.268.531-.461.274-1.293 0-1.967-.096-.263.078-.54.22-.78.141-.241.26-.573.082-.786-.071-.065-.155-.113-.247-.141-.092-.028-.189-.035-.284-.02-.271.006-.539.053-.797.138-.308.165-.662.223-1.007.167-.251-.138-.465-.336-.622-.578-.079-.119-.192-.213-.325-.267-.132-.054-.277-.067-.417-.038-.114.047-.206.144-.329.153-.072-.005-.142-.026-.204-.063-.062-.037-.115-.088-.153-.15-.075-.123-.177-.228-.298-.304-.288-.13-.641.157-.915 0-.133-.06-.211-.194-.316-.296-.309-.216-.678-.324-1.053-.309-.195-.011-.385-.069-.554-.168-.169-.1-.312-.239-.417-.405.04-.175.066-.352.078-.531-.011-.075-.037-.148-.078-.212s-.094-.118-.158-.16c-.063-.041-.134-.069-.209-.08-.074-.012-.151-.007-.223.013-.051.015-.097.044-.133.083-.124.162.06.393.028.596-.033.203-.335.319-.577.328-.137.018-.275.001-.403-.051-.13-.077-.242-.182-.325-.309-.187-.223-.341-.472-.458-.739-.06-.135-.091-.282-.091-.43 0-.148.031-.294.091-.429.063-.133.169-.24.301-.304.131-.064.28-.081.422-.047.115.032.243.111.344.046.1-.065.073-.3.119-.462.073-.245.421-.291.645-.171.208.148.404.311.586.49.163.092.316.2.458.323.096.116.174.273.32.3.147.028.307-.143.312-.314-.014-.166-.071-.325-.165-.462-.44-.646-.632-1.433-.54-2.212.05-.204.119-.404.206-.596.164-.487.461-.919.856-1.246.16-.091.313-.194.457-.31.128-.163.197-.365.197-.573.333.091.684.091 1.016 0 .146-.025.279-.1.376-.212.059-.082.093-.18.096-.282.007-.175-.045-.347-.148-.488-.102-.142-.248-.245-.415-.292-.179-.046-.403-.042-.508-.194-.033-.053-.05-.114-.05-.176 0-.062.017-.122.05-.175.068-.103.165-.184.279-.231.24-.12.513-.152.774-.092.127.033.246.095.348.179.102.085.185.19.242.31.101.231.101.527.298.684.069.051.151.084.237.094.086.011.173-.001.253-.034.159-.066.301-.167.416-.296.081-.065.146-.147.191-.24.045-.094.069-.196.07-.3-.013-.078-.042-.152-.085-.217-.044-.066-.1-.121-.167-.162-.134-.08-.275-.148-.421-.203-.417-.187-.787-.464-1.085-.813-.187-.222-.348-.462-.545-.688-.242-.276-.561-.472-.915-.564-.174-.045-.356-.053-.534-.023-.177.03-.346.098-.496.199-.058.05-.125.09-.197.115-.178.042-.329-.129-.458-.244-.334-.268-1.08-.384-1.249 0-.096.231.045.485.096.729.028.209.005.422-.067.619-.073.197-.193.374-.35.513-.045.038-.082.085-.11.138-.073.185.147.347.238.522.041.089.052.188.033.283-.019.095-.067.182-.138.248-.078.057-.172.088-.268.088-.096 0-.189-.031-.267-.088-.293-.226-.211-.739-.49-.983-.188-.162-.458-.144-.691-.264-.137-.096-.248-.225-.323-.374-.075-.15-.112-.317-.108-.485-.034-.35.038-.703.206-1.011.088-.152.21-.279.358-.372.148-.093.316-.147.489-.159.174 0 .353.046.527.037.088.003.175-.022.248-.073.072-.051.127-.124.154-.209.016-.074.016-.152 0-.226-.059-.227-.059-.466 0-.693.032-.113.101-.211.196-.279.095-.068.21-.102.326-.095.098.024.187.079.253.155.066.077.108.173.118.274.015.204-.031.407-.133.582-.031.06-.053.124-.064.19-.001.055.013.11.04.158.028.048.068.087.116.114.096.055.202.09.311.102.204.057.417.072.627.044.21-.028.413-.098.595-.206.072-.052.129-.122.165-.203.022-.113.029-.227.023-.342 0-.318.256-.577.352-.882.045-.145.055-.298.03-.448-.025-.149-.084-.291-.174-.413-.089-.122-.205-.221-.339-.29-.134-.069-.282-.105-.432-.105-.417 0-.806.259-1.218.231-.113 0-.223-.039-.311-.111-.085-.1-.151-.214-.197-.337-.064-.116-.178-.226-.307-.203-.128.023-.187.147-.242.258-.072.147-.126.302-.16.462-.055.31.045.633 0 .924-.028.138-.138.295-.28.263-.057-.016-.107-.054-.137-.106-.088-.118-.132-.264-.124-.411 0-.226.138-.49 0-.665-.036-.033-.079-.058-.126-.074-.046-.016-.095-.022-.144-.019-.049.004-.097.017-.141.039-.044.022-.083.053-.115.091-.133.164-.219.362-.247.572-.054-.104-.146-.183-.256-.221-.039-.01-.075-.027-.106-.051-.03-.047-.046-.101-.046-.157-.018-.098-.067-.187-.139-.255-.073-.067-.165-.109-.263-.119-.197-.018-.393.043-.545.171-.131.09-.23.221-.284.371-.053.151-.058.315-.014.469.092.231.339.425.289.67-.058-.023-.12-.032-.181-.025-.062.006-.121.027-.173.061-.052.033-.095.079-.126.133-.031.054-.048.115-.051.177-.17-.001-.337-.043-.487-.124-.15-.08-.278-.196-.374-.338-.212-.3-.516-.522-.865-.632-.224-.06-.458 0-.691-.06-.566.883-1.064 1.81-1.488 2.771-.037.235-.073.461-.105.702-.136.738-.17 1.492-.101 2.239zM113.864 164.847c-.071-.061-.128-.138-.166-.224-.038-.087-.056-.181-.053-.275.006-.187.025-.374.054-.559.045-.45-.044-.904-.256-1.302-.085-.173-.215-.32-.375-.425-.195-.089-.41-.126-.623-.106-1.076 0-2.156.189-3.204 0-.301-.068-.608-.111-.916-.13-.709 0-1.666.462-1.877 1.196-.046.14-.044.291.007.429s.147.254.273.329c.49.314.741-.056 1.144-.277.403-.222.916 0 1.332-.157.09-.041.186-.068.284-.079.247 0 .394.305.362.55-.068.24-.162.473-.28.692-.056.111-.078.236-.063.36.014.123.065.239.146.333.041.042.101.074.119.13.018.055-.115.189-.22.249-.133.077-.234.199-.285.345-.052.146-.049.305.006.449.105.25.352.407.458.647.105.24.105.462.229.674.114.13.255.235.413.305.158.071.329.107.502.106.017.129.06.252.127.363.067.11.156.206.262.279.13.057.273.072.411.044.139-.028.265-.098.363-.201.188-.212.31-.476.352-.757.028-.214.077-.425.147-.628.105-.204.25-.384.425-.531.176-.146.378-.257.596-.324.303-.089.587-.238.833-.439.058-.052.105-.116.138-.187.034-.071.053-.148.057-.226.004-.079-.008-.158-.034-.232-.027-.074-.068-.142-.12-.2-.16-.124-.398-.115-.568-.221zM133.209 174.545c-.032-.08-.081-.152-.142-.212-.123-.153-.302-.319-.49-.259-.187.06-.242.383-.256.623-.021.319-.129.626-.311.887l-.499-.088c-.247-.461-.069-1.029.11-1.519.247-.68.496-1.359.746-2.037.088-.207.145-.427.169-.651.005-.296-.046-.591-.151-.868.275-.869.443-1.768.499-2.679.016-.224.003-.448-.036-.669-.073-.269-.18-.527-.321-.767-.137-.259-.275-.517-.407-.776-.047-.106-.116-.2-.202-.277-.074-.05-.156-.089-.242-.115-.39-.157-.73-.417-.984-.753-.504-.642-.806-1.418-1.47-1.898-.543-.348-1.136-.61-1.758-.776-.248-.102-.515-.148-.783-.134-.245.049-.481.137-.7.259-.537.248-1.121.379-1.712.383-.055-.009-.112-.005-.166.011-.054.016-.103.044-.145.081-.034.062-.043.135-.026.203.017.068.059.128.117.167.106.087.248.129.362.208-.11.263-.627.175-.742.438-.032.074-.022.171-.082.231-.039.034-.09.05-.142.046-.252 0-.43-.244-.535-.461-.106-.218-.211-.495-.458-.601-.073-.036-.153-.051-.233-.046-.081.006-.158.033-.225.078-.06.042-.11.097-.174.134-.088.047-.185.072-.284.074-.288.019-.577.019-.865 0-.013-.004-.027-.005-.041-.003-.014.002-.027.007-.039.015-.011.008-.021.019-.027.031-.007.013-.011.026-.012.04-.097.301-.166.61-.206.924-.007.252-.088.497-.233.702-.031.03-.058.064-.078.102-.009.036-.009.074 0 .111.015.1.055.196.117.276.061.081.142.145.235.185.302.13.664 0 .984.083.133.042.271.13.403.074.054-.031.097-.078.123-.136.025-.057.032-.121.019-.182-.024-.123-.062-.242-.114-.356-.082-.332-.036-.684.128-.984.013.09.046.176.096.252.05.076.115.14.192.187.174.069.385-.032.559.046.174.079.233.393.389.573.049.045.093.094.133.148.026.054.037.114.032.174-.005.061-.025.118-.06.168-.068.096-.151.18-.247.249-.141.119-.275.245-.403.379-.072.081-.153.154-.242.217-.045.03-.096.049-.149.057-.053.008-.107.004-.158-.011-.077-.039-.152-.082-.224-.129-.073-.03-.154-.034-.229-.013-.076.022-.142.069-.188.133-.1-.059-.211-.097-.325-.112-.115-.014-.232-.006-.343.026-.111.031-.215.085-.306.157-.09.073-.166.163-.221.266-.123.258-.123.596-.357.762-.233.166-.714 0-1.025.161-.089.05-.159.129-.199.223-.04.095-.047.2-.021.299.027.101.087.19.17.252.083.062.184.094.288.09.224 0 .421-.171.645-.166.033.09.041.187.023.281-.003.028-.014.054-.032.074-.024.03-.059.049-.096.056-.535.097-1.058.252-1.561.462-.213.13-.409.285-.586.461-.095.069-.16.171-.183.287.009.092.046.179.105.249l.636.924c.055.087.123.165.202.231.256.189.613.069.915-.051.047-.018.09-.046.124-.083.039-.074.05-.159.032-.24.019-.244.085-.481.195-.698.11-.217.262-.41.446-.568.261-.303.548-.582.856-.836.073-.065.161-.112.256-.134.094-.007.188.008.275.042.313.102.619.225.915.369.113.047.215.114.303.199.043.042.075.095.092.153.018.058.021.12.008.18-.032.115-.142.244-.068.341.043.044.103.069.164.07.106.02.215.02.321 0 .048-.019.093-.047.13-.083.038-.035.068-.078.09-.126.021-.047.033-.099.034-.151.002-.052-.007-.104-.025-.153-.147-.351-.71-.314-.916-.633-.064-.097-.073-.254.028-.309.037-.01.077-.01.114 0 .215.013.423.081.604.198.05.024.095.057.133.097.045.053.08.112.105.176.219.447.517.849.879 1.187.165.174.38.291.614.337.137 0 .224-.217.178-.346-.045-.13-.087-.19 0-.231.022-.009.047-.009.069 0 .178.023.275.226.43.309.156.083.431 0 .646.028.026.002.051.01.073.023.017.016.03.037.037.06l.192.462c.016.047.041.091.073.129.046.043.103.072.165.083.21.06.435.056.636.134.176.087.332.211.457.363.126.152.218.329.271.519-.124.081-.226.192-.296.322-.071.131-.107.278-.107.426.011.279.12.544.307.749.037.045.084.081.137.106.066.018.136.018.202 0l.489-.106c.022-.01.046-.014.069-.014.024 0 .047.004.069.014.021.013.04.032.054.053.014.022.024.046.028.071.061.193.086.395.073.596-.001.079-.025.156-.068.222-.045.048-.1.087-.161.112-.06.026-.126.038-.192.035-1.251.148-2.502.271-3.753.37-.353-.217-.618-.462-.971-.665-.081-.056-.17-.097-.265-.12-.128-.008-.256.01-.376.055-.778.208-1.607.065-2.403.203-.117.015-.228.058-.325.125-.27.222-.137.665-.284.984-.242.522-1.094.462-1.373.96-.119.297-.119.628 0 .924l.178.665c-.16.439-.38.947-.508 1.386-.018.072-.018.148 0 .221.027.078.078.145.147.19.196.147.42.253.659.309.124.017.244.053.357.106.247.139.32.462.494.693.199.23.478.372.779.397.297.019.595 0 .888-.055l1.483-.227c.173-.044.355-.034.522.028.116.062.209.161.265.282.163.453.248.931.252 1.413.087.614.38 1.187.481 1.797.1.609-.504 1.274-.724 1.847-.07.162-.112.336-.123.512.008.199.057.394.142.573l.604 1.51c.022.072.059.139.11.194.064.051.14.085.219.102.234.044.472.066.71.065.064.009.129 0 .188-.028.056-.039.101-.093.128-.157.531-.993 1.198-1.906 1.982-2.711.221-.19.4-.425.526-.688.061-.17.096-.347.106-.527.059-.619.123-1.237.187-1.847.064-.61.788-1.168 1.195-1.681.369-.365.62-.833.723-1.344.042-.559-.325-1.09-.288-1.649l-.824-.697c-.385-.258-.664-.649-.783-1.099-.015-.205.003-.411.055-.61.073-.374.151-.753.229-1.131.147.034.279.113.38.226l.861.785c.043.034.078.079.1.129.021.06.021.125 0 .185-.105.388-.393.767-.288 1.155.111.261.308.475.558.605.093.072.204.117.321.129.11-.01.215-.052.302-.12.459-.304.854-.697 1.163-1.155.083-.111.148-.236.192-.369.124-.416-.087-.882.055-1.293.087-.305.371-.582.256-.887zM131.314 183.782c-.07.015-.137.045-.196.087-.059.042-.109.095-.147.157-.057.092-.135.169-.228.224-.092.055-.196.088-.303.095l-.522.083c-.054.003-.107.017-.156.042-.045.03-.082.07-.109.117-.027.048-.043.101-.046.155v.333c-.032.563-.577.956-.755 1.492-.01.039-.01.08 0 .12.014.051.043.097.082.134.05.069.123.118.206.138.049 0 .097-.009.142-.028l.426-.147c.192-.06.376-.147.544-.259.111-.083.204-.187.273-.307.069-.12.113-.253.13-.39-.01-.259.01-.518.06-.772.093-.185.222-.35.38-.485.068-.083.7-.826.219-.789z"/>
    <path fill="#12C32C" d="M112.738 170.85c-.041-.034-.087-.06-.137-.078l-.206-.074c-.095-.027-.177-.085-.234-.166-.036-.054-.082-.1-.137-.134-.076-.04-.164-.052-.248-.032-.084.019-.159.068-.21.138-.017.032-.031.066-.041.102-.016.071-.025.144-.027.217-.007.029-.007.059 0 .088.014.028.034.053.059.073.102.074.227.108.353.097.124-.009.25-.009.375 0 .025.004.05.012.073.023.022.015.042.032.06.051.026.019.056.032.088.037.032.004.064.002.095-.009.059-.022.115-.053.165-.092 0 0 .036-.023.041-.047.002-.013.002-.027 0-.041-.01-.056-.034-.108-.069-.153z"/>
    <g fill="#fff" opacity=".4">
        <path d="M98.781 173.778c.125.673.302 1.333.531 1.977.197.656.458 1.529.17 2.138-.13.234-.226.484-.289.744-.03.13-.035.265-.012.397.023.132.072.258.145.37.174.24.458.355.673.572.38.416.293 1.067.457 1.612.082.274.225.525.419.733.194.208.433.368.698.468.229.083.563.06.614-.18.05-.241-.151-.361-.312-.462-.399-.291-.739-.656-1.002-1.076-.06-.083-.098-.18-.11-.282-.001-.05.014-.098.044-.138.03-.039.073-.067.121-.079.27.088.334.429.494.66.105.146.255.253.427.304.171.051.354.043.521-.022.06-.029.123-.054.188-.074.08-.008.161 0 .238.023.535.079 1.045.283 1.487.596.314.315.586.669.811 1.053.227.386.595.668 1.025.785.368.014.737-.025 1.094-.115.45-.048.904.041 1.305.254-.231.24-.398.536-.487.858-.089.323-.096.663-.021.989.045.208.128.406.16.614.018.332.004.664-.041.993-.022.165-.003.332.054.488.056.156.149.296.271.408.297.217.787.18.947.517.055.116.055.254.101.374.079.141.197.256.339.333.141.076.302.109.462.097.32-.03.642.013.943.125.458.235.549.808.764 1.26.124.262.299.496.513.689.261.235.586.429.7.762.031.194.083.385.156.568.147.231.485.295.595.549.036.116.061.235.073.356.044.161.127.309.242.429.116.121.259.21.418.259.315.097.645.139.975.125h1.03c.192 0 .43 0 .512-.194.026-.091.017-.188-.023-.273-.041-.085-.11-.152-.196-.189-.179-.064-.363-.113-.55-.148-.204-.062-.389-.177-.536-.333-.147-.156-.251-.349-.301-.558-.028-.134-.032-.273-.074-.407-.069-.179-.157-.351-.261-.512-.257-.47-.345-1.015-.247-1.543.051-.277.151-.549.174-.827.009-.406-.061-.811-.206-1.191-.039-.088-.052-.186-.036-.282.046-.11.124-.203.224-.268.531-.461.274-1.293 0-1.967-.096-.263.078-.54.22-.78.141-.241.26-.573.082-.786-.071-.065-.155-.113-.247-.141-.092-.028-.189-.035-.284-.02-.271.006-.539.053-.797.138-.308.165-.662.223-1.007.167-.251-.138-.465-.336-.622-.578-.079-.119-.192-.213-.325-.267-.132-.054-.277-.067-.417-.038-.114.047-.206.144-.329.153-.072-.005-.142-.026-.204-.063-.062-.037-.115-.088-.153-.15-.075-.123-.177-.228-.298-.304-.288-.13-.641.157-.915 0-.133-.06-.211-.194-.316-.296-.309-.216-.678-.324-1.053-.309-.195-.011-.385-.069-.554-.168-.169-.1-.312-.239-.417-.405.04-.175.066-.352.078-.531-.011-.075-.037-.148-.078-.212s-.094-.118-.158-.16c-.063-.041-.134-.069-.209-.08-.074-.012-.151-.007-.223.013-.051.015-.097.044-.133.083-.124.162.06.393.028.596-.033.203-.335.319-.577.328-.137.018-.275.001-.403-.051-.13-.077-.242-.182-.325-.309-.187-.223-.341-.472-.458-.739-.06-.135-.091-.282-.091-.43 0-.148.031-.294.091-.429.063-.133.169-.24.301-.304.131-.064.28-.081.422-.047.115.032.243.111.344.046.1-.065.073-.3.119-.462.073-.245.421-.291.645-.171.208.148.404.311.586.49.163.092.316.2.458.323.096.116.174.273.32.3.147.028.307-.143.312-.314-.014-.166-.071-.325-.165-.462-.44-.646-.632-1.433-.54-2.212.05-.204.119-.404.206-.596.164-.487.461-.919.856-1.246.16-.091.313-.194.457-.31.128-.163.197-.365.197-.573.333.091.684.091 1.017 0 .145-.025.278-.1.375-.212.059-.082.093-.18.096-.282.007-.175-.045-.347-.148-.488-.102-.142-.248-.245-.415-.292-.179-.046-.403-.042-.508-.194-.033-.053-.05-.114-.05-.176 0-.062.017-.122.05-.175.068-.103.165-.184.279-.231.24-.12.513-.152.774-.092.127.033.246.095.348.179.102.085.185.19.242.31.101.231.101.527.298.684.069.051.151.084.237.094.086.011.173-.001.253-.034.159-.066.301-.167.416-.296.081-.065.146-.147.191-.24.045-.094.069-.196.07-.3-.013-.078-.042-.152-.085-.217-.043-.066-.1-.121-.167-.162-.134-.08-.275-.148-.421-.203-.417-.187-.787-.464-1.085-.813-.187-.222-.348-.462-.544-.688-.243-.276-.562-.472-.916-.564-.174-.045-.356-.053-.534-.023-.177.03-.346.098-.496.199-.058.05-.125.09-.197.115-.178.042-.329-.129-.458-.244-.334-.268-1.08-.384-1.249 0-.096.231.045.485.096.729.028.209.005.422-.067.619-.073.197-.193.374-.35.513-.045.038-.082.085-.11.138-.073.185.147.347.238.522.041.089.052.188.033.283-.019.095-.067.182-.138.248-.078.057-.171.088-.268.088-.096 0-.189-.031-.267-.088-.293-.226-.211-.739-.49-.983-.188-.162-.458-.144-.691-.264-.137-.096-.248-.225-.323-.374-.075-.15-.112-.317-.108-.485-.034-.35.038-.703.206-1.011.088-.152.21-.279.358-.372.148-.093.316-.147.489-.159.174 0 .353.046.527.037.088.003.175-.022.248-.073.072-.051.127-.124.154-.209.016-.074.016-.152 0-.226-.059-.227-.059-.466 0-.693.032-.113.101-.211.196-.279.095-.068.21-.102.326-.095.098.024.187.079.253.155.066.077.108.173.118.274.015.204-.031.407-.133.582-.031.06-.053.124-.064.19-.001.055.013.11.04.158.028.048.068.087.116.114.096.055.202.09.311.102.204.057.417.072.627.044.21-.028.413-.098.595-.206.072-.052.129-.122.165-.203.022-.113.029-.227.023-.342 0-.318.256-.577.352-.882.045-.145.055-.298.03-.448-.025-.149-.084-.291-.174-.413-.089-.122-.205-.221-.339-.29-.134-.069-.282-.105-.432-.105-.417 0-.806.259-1.218.231-.113 0-.223-.039-.311-.111-.085-.1-.151-.214-.197-.337-.064-.116-.178-.226-.307-.203-.128.023-.187.147-.242.258-.072.147-.126.302-.16.462-.055.31.045.633 0 .924-.028.138-.138.295-.28.263-.057-.016-.107-.054-.137-.106-.088-.118-.132-.264-.124-.411 0-.226.138-.49 0-.665-.036-.033-.079-.058-.126-.074-.046-.016-.095-.022-.144-.019-.049.004-.097.017-.141.039-.044.022-.083.053-.115.091-.133.164-.219.362-.247.572-.054-.104-.146-.183-.256-.221-.039-.01-.075-.027-.106-.051-.03-.047-.046-.101-.046-.157-.018-.098-.067-.187-.139-.255-.073-.067-.165-.109-.263-.119-.197-.018-.393.043-.545.171-.131.09-.23.221-.284.371-.053.151-.058.315-.014.469.092.231.339.425.289.67-.058-.023-.12-.032-.181-.025-.062.006-.121.027-.173.061-.052.033-.095.079-.126.133-.031.054-.048.115-.051.177-.17-.001-.337-.043-.487-.124-.15-.08-.278-.196-.374-.338-.212-.3-.516-.522-.865-.632-.224-.06-.458 0-.691-.06-.566.883-1.063 1.81-1.488 2.771-.037.235-.073.461-.105.702-.136.738-.17 1.492-.101 2.239zM113.864 164.847c-.071-.061-.128-.138-.166-.224-.038-.087-.056-.181-.053-.275.006-.187.025-.374.054-.559.045-.45-.044-.904-.256-1.302-.085-.173-.215-.32-.375-.425-.195-.089-.41-.126-.623-.106-1.076 0-2.156.189-3.204 0-.301-.068-.608-.111-.916-.13-.709 0-1.666.462-1.877 1.197-.046.139-.044.29.007.428s.147.254.273.329c.49.314.741-.055 1.144-.277.403-.222.916 0 1.332-.157.09-.041.186-.068.284-.079.247 0 .394.305.362.55-.068.24-.162.473-.28.693-.056.11-.078.235-.063.359.014.123.065.239.146.333.041.042.101.074.119.13.018.055-.115.189-.22.249-.133.077-.234.199-.285.345-.052.146-.049.305.006.449.105.25.352.407.458.647.105.24.105.462.229.674.114.131.255.235.413.306.158.07.329.106.502.105.017.129.06.252.127.363.067.111.156.206.262.279.13.057.273.072.411.044.139-.028.265-.098.363-.201.188-.212.31-.476.352-.757.028-.214.077-.424.147-.628.105-.204.25-.384.425-.531.176-.146.378-.256.596-.324.303-.089.587-.238.833-.438.058-.053.105-.117.138-.188.034-.071.053-.148.057-.226.004-.079-.008-.157-.034-.231-.027-.075-.068-.143-.12-.201-.16-.124-.398-.115-.568-.221zM133.209 174.545c-.032-.08-.081-.152-.142-.212-.123-.153-.302-.319-.489-.259-.188.06-.243.383-.257.624-.021.318-.129.625-.311.886l-.499-.087c-.247-.462-.069-1.03.11-1.52.247-.68.496-1.359.746-2.037.088-.207.145-.426.169-.651.005-.296-.046-.591-.151-.868.275-.869.443-1.768.499-2.679.016-.223.003-.448-.036-.669-.073-.269-.18-.527-.321-.767-.137-.258-.275-.517-.407-.776-.047-.105-.116-.2-.202-.277-.074-.05-.156-.089-.242-.115-.39-.157-.73-.417-.984-.753-.504-.642-.806-1.418-1.47-1.898-.543-.348-1.136-.61-1.758-.776-.248-.102-.515-.148-.782-.134-.246.049-.482.137-.701.259-.537.248-1.121.379-1.712.383-.055-.009-.112-.005-.166.011-.054.016-.103.044-.145.081-.034.062-.043.135-.026.203.017.068.059.128.117.167.106.088.248.129.362.208-.11.263-.627.175-.742.438-.032.074-.022.171-.082.231-.039.034-.09.05-.142.046-.252 0-.43-.244-.535-.461-.106-.217-.211-.494-.458-.601-.073-.035-.153-.051-.233-.046-.081.006-.158.033-.225.079-.06.041-.11.097-.174.134-.088.046-.185.071-.284.073-.288.019-.577.019-.865 0-.013-.004-.027-.005-.041-.003-.014.002-.027.008-.039.016-.011.008-.021.018-.027.03-.007.013-.011.026-.012.041-.097.3-.166.61-.206.923-.007.252-.088.497-.233.702-.031.03-.058.064-.078.102-.009.036-.009.074 0 .111.015.1.055.196.117.277.061.08.142.144.235.184.302.13.664 0 .984.084.133.041.271.129.403.073.054-.031.097-.078.123-.135.025-.058.032-.122.019-.183-.024-.123-.062-.242-.114-.356-.082-.332-.036-.684.128-.983.013.089.046.175.096.251.05.076.115.14.192.187.174.07.385-.032.559.046.174.079.233.393.389.573.049.045.093.094.133.148.026.054.037.114.032.175-.005.06-.025.117-.06.167-.068.096-.151.18-.247.249-.141.119-.275.245-.403.379-.072.081-.153.154-.242.217-.045.03-.096.049-.149.057-.053.008-.107.004-.158-.011-.077-.039-.152-.082-.224-.129-.073-.03-.154-.034-.229-.012-.076.021-.142.068-.188.132-.1-.059-.211-.097-.325-.112-.115-.014-.232-.006-.343.026-.111.031-.215.085-.306.157-.09.073-.165.163-.221.266-.123.258-.123.596-.357.762-.233.166-.714 0-1.025.162-.089.049-.159.128-.199.222-.04.095-.047.2-.021.299.027.101.087.19.17.252.083.062.184.094.288.09.224 0 .421-.171.645-.166.033.09.041.187.023.282-.003.027-.014.053-.032.073-.024.03-.059.05-.096.056-.535.097-1.058.252-1.561.462-.213.13-.409.285-.586.462-.095.068-.16.17-.183.286.01.092.046.179.105.249l.637.924c.054.087.122.165.201.231.256.189.613.069.915-.051.047-.018.09-.046.124-.083.039-.074.05-.159.032-.24.019-.243.085-.48.195-.698.11-.217.262-.41.446-.568.261-.302.548-.582.856-.836.073-.065.161-.111.256-.133.094-.007.188.007.275.041.313.102.619.225.916.37.112.046.214.113.302.198.043.042.075.095.092.153.018.058.021.12.008.18-.032.115-.142.244-.068.341.043.045.103.07.164.07.106.02.215.02.321 0 .048-.019.093-.047.13-.082.038-.036.068-.079.09-.127.021-.047.033-.099.034-.151.002-.052-.007-.104-.025-.153-.147-.351-.71-.314-.916-.633-.064-.097-.073-.254.028-.309.037-.01.077-.01.114 0 .215.013.423.081.604.199.05.024.095.056.133.097.045.052.08.111.105.175.219.447.517.849.879 1.187.165.174.38.292.614.337.137 0 .224-.217.178-.346-.045-.13-.087-.19 0-.231.022-.009.047-.009.069 0 .178.023.275.226.43.309.156.083.431 0 .646.028.026.002.051.01.073.023.017.016.03.037.037.06l.192.462c.016.047.041.091.073.129.046.043.103.072.165.083.21.06.435.056.636.134.176.087.332.211.457.363.126.152.218.329.271.519-.124.081-.226.192-.296.322-.071.131-.107.278-.107.426.011.279.12.544.307.749.037.045.084.082.137.106.066.018.136.018.202 0l.489-.106c.022-.01.046-.014.069-.014.024 0 .047.004.069.014.021.013.04.032.054.053.014.022.024.046.028.071.061.193.086.395.073.596-.001.079-.024.156-.068.222-.045.049-.1.087-.161.112-.06.026-.126.038-.192.036-1.251.147-2.502.27-3.753.369-.353-.217-.618-.462-.971-.665-.081-.056-.17-.096-.265-.12-.128-.008-.256.011-.376.055-.778.208-1.607.065-2.403.204-.117.015-.228.057-.325.124-.27.222-.137.665-.284.984-.242.522-1.094.462-1.373.961-.119.296-.119.627 0 .923l.178.665c-.16.439-.38.947-.508 1.386-.018.072-.018.149 0 .221.027.078.078.145.147.19.196.148.42.253.659.309.124.017.244.053.357.106.247.139.32.462.494.693.199.23.478.372.779.397.297.019.595 0 .888-.055l1.483-.226c.173-.045.355-.035.522.027.116.062.21.161.265.282.163.453.248.931.252 1.413.087.614.38 1.187.481 1.797.1.609-.504 1.274-.724 1.847-.07.162-.112.336-.123.513.008.198.057.393.142.572l.604 1.51c.022.073.059.139.11.194.064.051.14.085.219.102.234.044.472.066.71.065.064.009.129 0 .188-.028.056-.039.101-.093.128-.157.531-.993 1.198-1.906 1.982-2.711.221-.19.4-.425.526-.688.061-.169.096-.347.106-.527.059-.618.123-1.237.187-1.847.064-.61.788-1.168 1.195-1.681.369-.365.62-.833.723-1.344.042-.559-.325-1.09-.288-1.649l-.824-.697c-.385-.257-.664-.649-.783-1.099-.015-.205.003-.411.055-.61.073-.374.151-.752.229-1.131.147.035.279.114.38.226l.861.785c.043.034.078.079.1.13.021.059.021.124 0 .184-.105.388-.393.767-.288 1.155.111.261.308.475.558.605.093.072.204.117.321.129.11-.01.215-.052.302-.12.459-.304.854-.697 1.163-1.155.083-.111.148-.236.192-.369.124-.416-.087-.882.055-1.293.087-.305.371-.582.256-.887zM131.314 183.782c-.07.015-.137.045-.196.087-.059.042-.109.095-.147.157-.057.092-.135.169-.228.224-.092.055-.196.088-.303.095l-.522.083c-.054.003-.107.017-.156.042-.045.03-.082.07-.109.117-.027.048-.043.101-.046.155v.333c-.032.563-.577.956-.755 1.492-.01.039-.01.08 0 .12.014.051.043.097.082.134.05.069.123.118.206.138.049 0 .097-.009.142-.028l.426-.147c.192-.06.376-.147.544-.259.111-.083.204-.187.273-.307.069-.12.113-.253.13-.39-.01-.259.01-.518.06-.772.093-.185.222-.35.38-.485.068-.083.7-.826.219-.789z" opacity=".4"/>
        <path d="M112.738 170.85c-.041-.034-.087-.06-.137-.078l-.206-.074c-.095-.027-.177-.085-.234-.166-.036-.054-.082-.1-.137-.134-.076-.04-.164-.052-.248-.032-.084.019-.159.068-.21.138-.017.032-.031.066-.041.102-.016.071-.025.144-.027.217-.007.029-.007.059 0 .088.014.028.034.053.059.073.102.074.227.108.353.097.125-.009.25-.009.375 0 .025.004.05.012.073.023.022.015.042.032.06.051.026.019.056.032.088.037.032.004.064.002.095-.009.059-.022.115-.053.165-.092 0 0 .036-.023.041-.047.002-.013.002-.027 0-.041-.01-.056-.034-.108-.069-.153z" opacity=".4"/>
    </g>
    <path fill="#000" d="M100.877 172.73c.001-2.211.327-4.41.966-6.526-3.364 4.117-5.002 9.396-4.565 14.712.438 5.317 2.916 10.252 6.907 13.752s9.18 5.289 14.459 4.986c5.28-.303 10.234-2.674 13.805-6.608-3.384 1.593-7.113 2.298-10.84 2.051-3.727-.247-7.332-1.439-10.481-3.465s-5.741-4.821-7.535-8.125c-1.794-3.305-2.733-7.013-2.729-10.781l.013.004z" opacity=".22"/>
    <path fill="#232D32" d="M103.455 91.693l.096-.157-.096.157z"/>
    <path fill="#12C32C" d="M102.887 92.672c.169-.337.353-.665.54-.979-.187.314-.371.647-.54.98z"/>
    <path fill="#FFA8A7" d="M80.525 82.027l2.124-1.593c.663-.495 1.168-1.176 1.451-1.958l.504-1.386c.352-.958.972-1.792 1.785-2.401 1.217-.912 2.314-1.976 3.264-3.168.306.337.488.771.514 1.228.026.457-.106.909-.372 1.28-.398.532-.834 1.036-1.305 1.505l1.172.083c.847.057 1.692-.15 2.417-.596l2.976-1.847c.083-.053.18-.082.278-.086.099-.003.197.02.284.067.087.046.16.115.213.2.052.084.082.181.085.28-.038 1.488-.327 2.958-.856 4.347-.24.66-.617 1.262-1.108 1.762-.49.5-1.082.889-1.734 1.138-1.58.61-3.118 1.14-3.997 1.436-.5.17-.972.417-1.396.734l-3.131 2.36-3.168-3.385z"/>
    <path fill="#12C32C" d="M82.855 79.954l-2.705 1.764c.086 1.01.458 1.974 1.072 2.777.613.803 1.442 1.412 2.389 1.753l2.462-2.35s-2.375-.384-3.218-3.944z"/>
    <path fill="#fff" d="M82.855 79.954l-2.705 1.764c.086 1.01.458 1.974 1.072 2.777.613.803 1.442 1.412 2.389 1.753l2.462-2.35s-2.375-.384-3.218-3.944z" opacity=".6"/>
    <path fill="#12C32C" d="M81.148 84.383c-.566-.786-.911-1.712-.998-2.679l-8.405 5.473-4.962-14.008c-.325-.917-.895-1.725-1.647-2.336-.752-.61-1.657-.999-2.615-1.123l-2.421-.318 2.261 16.395 3.864 7.818c.346.7.844 1.311 1.456 1.79.613.479 1.324.812 2.082.975.757.164 1.542.153 2.295-.032.753-.184 1.455-.537 2.054-1.033l9.499-9.07c-.983-.362-1.839-1.006-2.463-1.852z"/>
    <path fill="#fff" d="M81.148 84.383c-.566-.786-.911-1.712-.998-2.679l-8.405 5.473-4.962-14.008c-.325-.917-.895-1.725-1.647-2.336-.752-.61-1.657-.999-2.615-1.123l-2.421-.318 2.261 16.395 3.864 7.818c.346.7.844 1.311 1.456 1.79.613.479 1.324.812 2.082.975.757.164 1.542.153 2.295-.032.753-.184 1.455-.537 2.054-1.033l9.499-9.07c-.983-.362-1.839-1.006-2.463-1.852z" opacity=".4"/>
    <path fill="#000" d="M71.745 87.177l-3.19 2.406 2.302-4.905.888 2.499z" opacity=".2"/>
    <path fill="#455A64" d="M70.834 176.06c-.52.502-1.139.89-1.816 1.14-.676.251-1.397.358-2.116.315-1.44-.094-2.85-.453-4.16-1.058-1.328-.549-3-2.097-4.437-2.064-1.406-.011-2.811-.109-4.206-.291-.051-1.933.15-3.865.6-5.745l6.71-.18c1.831 2.503 5.338 4.586 8.006 5.366.41.118.78.347 1.071.661.291.314.492.701.582 1.122.002.013.002.027 0 .041-.048.24-.127.473-.234.693z"/>
    <path fill="#263238" d="M58.306 174.393c1.437-.033 3.108 1.515 4.435 2.064 1.312.605 2.722.964 4.161 1.058.72.043 1.44-.064 2.117-.315.676-.25 1.294-.638 1.816-1.14.105-.22.182-.453.228-.693.003-.014.003-.028 0-.041.064.296.064.604 0 .9-.046.24-.123.473-.228.693-.522.502-1.14.89-1.816 1.14-.677.251-1.397.358-2.117.315-1.439-.094-2.85-.453-4.16-1.058-1.328-.549-3-2.092-4.436-2.064-1.377.009-2.754-.071-4.12-.24-.037-.305-.055-.61-.069-.924 1.389.186 2.788.288 4.189.305zM39.368 176.693c-.002.69.065 1.378.201 2.055.217 1.202.884 2.274 1.863 2.992.9.521 1.92.795 2.957.795.912.099 1.834.003 2.706-.282.66-.237 1.22-.697 1.584-1.302v.037c-.13.444-.364.85-.683 1.183-.319.333-.713.583-1.149.729-.872.283-1.793.379-2.705.281-1.04.003-2.065-.268-2.97-.785-.979-.721-1.644-1.794-1.86-2.997-.137-.675-.205-1.362-.2-2.051-.005-.471-.104-.937-.292-1.369-.188-.432-.461-.821-.803-1.143-.165-.157-.33-.323-.458-.494-.104-.123-.183-.265-.233-.419-.05-.154-.068-.316-.055-.477 0-.129.023-.254.037-.374.247.286.828.979.975 1.118.34.321.61.708.797 1.139.187.43.285.894.288 1.364z"/>
    <path fill="#455A64" d="M44.49 169.539c-.218 1.407-.038 2.849.522 4.156.563 1.303 1.3 2.523 2.188 3.626.431.523.813 1.086 1.14 1.681.321.593.436 1.278.325 1.944-.364.605-.923 1.065-1.584 1.303-.872.285-1.794.381-2.705.281-1.038 0-2.057-.274-2.957-.794-.98-.719-1.647-1.791-1.864-2.993-.135-.676-.203-1.365-.201-2.055-.002-.471-.1-.937-.288-1.369-.187-.432-.46-.821-.802-1.143-.146-.139-.727-.832-.975-1.118.137-1.029.48-2.018 1.008-2.909l6.193-.61z"/>
    <path fill="#37474F" d="M64.32 102.648l-.563 38.646-1.803 27.035c-4.578 2.919-7.888.531-7.888.531-1.735-12.806-1.973-20.685-1.025-26.015l-.856-20.865-2.614 21.623-4.376 26.527c-4.692 3.071-8.002 0-8.002 0 0-9.818-.87-20.782 1.831-27.88-1.913-21.859 1.26-39.205 1.26-39.205l24.036-.397z"/>
    <path fill="#000" d="M53.133 114.046l-.948 7.934.403 9.763 1.762-16.044c4.084-1.612 4.615-3.879 4.615-3.879-1.728 1.225-3.734 1.99-5.832 2.226z" opacity=".3"/>
    <path fill="#12C32C" d="M55.623 68.916l4.477.462c3.662 3.265 5.562 10.105 4.77 17.665-.483 5.182-.667 10.387-.55 15.591-9.938 7.32-22.476 1.99-24.055.397l.741-9.264c.08-1.044-.093-2.091-.503-3.053-.916-2.198-2.614-6.525-2.838-9.878-.129-2.988.502-5.96 1.83-8.632l6.506-2.863 9.622-.425z"/>
    <path fill="#fff" d="M55.623 68.916l4.477.462c3.662 3.265 5.562 10.105 4.77 17.665-.483 5.182-.667 10.387-.55 15.591-9.938 7.32-22.476 1.99-24.055.397l.741-9.264c.08-1.044-.093-2.091-.503-3.053-.916-2.198-2.614-6.525-2.838-9.878-.129-2.988.502-5.96 1.83-8.632l6.506-2.863 9.622-.425z" opacity=".5"/>
    <path fill="#12C32C" d="M56.868 75.501c3.744 8.692 3.662 17.642 3.662 17.642L58.7 97.138l-2.889-3.82c.225-5.85.11-11.71-.343-17.549l1.401-.268z"/>
    <path fill="#12C32C" d="M57.024 72.218c.078 1.097.026 2.2-.156 3.284-.426.21-.9.3-1.373.258-.88-.787-1.635-1.706-2.239-2.725l2.239-.817h1.529z"/>
    <path fill="#12C32C" d="M55.476 72.218c-1.927.716-3.662 4.156-3.662 4.156-5.035-4.331-5.85-7.038-5.85-7.038.659-1.01 1.49-1.895 2.454-2.614l7.058 5.496zM55.476 72.218c1.47.041 2.747 2.11 2.747 2.11.238-3.62-2.747-6.405-2.747-6.405v4.295z"/>
    <g opacity=".35">
        <path fill="#fff" d="M55.476 72.218c-1.927.716-3.662 4.156-3.662 4.156-5.035-4.331-5.85-7.038-5.85-7.038.659-1.01 1.49-1.895 2.454-2.614l7.058 5.496zM55.477 72.218c1.469.041 2.746 2.11 2.746 2.11.238-3.62-2.746-6.405-2.746-6.405v4.295z" opacity=".35"/>
    </g>
    <path fill="#37474F" d="M45.982 52.16c.648-.767 1.558-1.262 2.55-1.385l13.321 1.266c1.538 3.334.311 5.542.311 5.542.206 5.08.376 8.313-1.803 9.384-1.19.582-3.003.831-4.866.693-1.554-.095-3.073-.508-4.463-1.215l-.07-.037c-.482-.264-.902-.63-1.232-1.073-.33-.443-.56-.953-.676-1.495-.225-.99-.378-1.994-.458-3.006-.025-.576-.088-1.15-.187-1.718-.105-.566-.363-1.092-.747-1.52-.193-.208-.435-.365-.703-.457-.269-.092-.555-.116-.835-.069-.094.026-.186.062-.274.106-.38-2.281-.49-4.24.132-5.015z"/>
    <path fill="#FFA8A7" d="M50.862 52.535c.23.948.167 1.943-.178 2.854-.345.903-.628 1.829-.847 2.771-.173.949-.045 1.928.366 2.799.205.43.502.808.87 1.108.367.3.795.515 1.254.628 1.433.314 2.83-.545 4.267-.827 1.38-.247 2.8.01 4.01.726.102.061.219.095.338.097.12.003.238-.026.343-.083.105-.057.194-.141.257-.243.064-.102.1-.22.105-.34.174-2.923.17-7.509-.252-9.66l-10.533.17z"/>
    <path fill="#37474F" d="M48.34 62.27s.027 1.187.055 2.605c-.595-.52-1.026-1.204-1.24-1.968.46-.053.884-.28 1.185-.637zM61.166 49.884l1.657-1.178c.172.567.204 1.167.093 1.748-.11.582-.358 1.128-.724 1.591-.755.896-1.782 1.515-2.92 1.76-1.13.235-2.289.288-3.434.157-1.678-.139-3.337-.448-4.953-.924-.735-.157-1.411-.52-1.95-1.048-.336-.443-.526-.98-.544-1.538-.018-.557.137-1.106.443-1.57.317-.453.726-.831 1.2-1.11.473-.28 1-.454 1.547-.511 1.105-.093 2.218-.004 3.296.263 1.077.267 2.191.35 3.295.245.555-.063 1.087-.26 1.55-.574.463-.314.844-.737 1.11-1.232.925 1.552.334 3.92.334 3.92z"/>
    <path fill="#F28F8F" d="M56.992 57.721l2.426 3.011-2.23.808-.196-3.819zM55.151 63.037l1.877.59c-.118.226-.306.405-.535.513-.229.107-.486.137-.733.084-.22-.099-.4-.27-.511-.486-.11-.215-.145-.463-.098-.701z"/>
    <path fill="#000" d="M55.151 63.037l1.877.59c-.118.226-.306.405-.535.513-.229.107-.486.137-.733.084-.22-.099-.4-.27-.511-.486-.11-.215-.145-.463-.098-.701z" opacity=".3"/>
    <path fill="#F28F8F" d="M56.378 64.168c-.197.076-.412.09-.618.042-.174-.07-.325-.188-.433-.342-.108-.155-.169-.337-.176-.526.251-.042.508.005.728.134.249.157.428.405.5.692z"/>
    <path fill="#263238" d="M53.687 58.382c.003.089.024.176.061.257.037.08.09.153.155.213s.142.107.224.137c.084.03.172.044.26.04.182-.01.353-.093.475-.23s.185-.317.175-.5c-.01-.184-.091-.357-.227-.48s-.314-.186-.496-.176c-.09.005-.178.03-.258.07-.08.04-.152.097-.21.166-.059.069-.103.149-.13.235-.028.086-.038.177-.03.268zM59.267 57.85c.008.133.055.26.135.367.08.105.189.185.314.229.124.043.259.048.387.014.127-.033.242-.104.33-.204.087-.099.144-.222.163-.354.018-.132-.003-.266-.06-.386-.057-.12-.148-.22-.262-.288-.113-.068-.244-.1-.376-.093-.088.004-.174.027-.254.065-.08.039-.15.093-.21.16-.058.066-.103.144-.132.228-.029.084-.04.174-.035.263zM59.775 55.103l1.529.965c.055-.19.052-.394-.01-.583-.06-.188-.177-.354-.334-.475-.185-.1-.396-.144-.606-.128-.21.017-.41.093-.58.22zM54.062 55.334l-1.42 1.126c-.074-.183-.092-.384-.05-.578.04-.194.138-.37.28-.507.174-.12.378-.187.589-.194.21-.007.419.046.6.153z"/>
    <path fill="#FFA8A7" d="M44.93 58.164c.173-.432.5-.784.915-.988.088-.044.18-.08.275-.106.28-.047.566-.023.834.069.269.091.51.249.704.457.383.428.642.954.746 1.52.1.568.162 1.142.188 1.718.077 1.037.23 2.066.458 3.08.12.529.353 1.025.68 1.456.328.43.744.784 1.22 1.038l.063.037c1.39.707 2.91 1.12 4.464 1.215v4.586l-6.295-3.76c-.224-.133-.41-.323-.54-.55-.132-.227-.202-.485-.206-.747 0-.73-.032-1.538-.05-2.286-.028-1.418-.055-2.605-.055-2.605-.301.356-.725.584-1.186.637-.207.032-.42.02-.622-.032-.298-.1-.574-.258-.81-.467-.235-.208-.427-.463-.564-.748-.28-.576-.437-1.206-.457-1.847-.05-.57.032-1.144.238-1.677z"/>
    <path fill="#000" d="M50.134 66.33c-.371-.49-.636-1.054-.778-1.654.343.729.907 1.328 1.611 1.709l.065.037c1.39.707 2.909 1.12 4.463 1.215v1.15c-.899-.082-1.784-.273-2.637-.569-1.067-.356-2.012-1.01-2.724-1.889z" opacity=".2"/>
    <path fill="#12C32C" d="M68.29 102.856l4.577-18.843c.072-.29.2-.561.38-.8.178-.237.402-.437.659-.585L85.313 76c.066-.037.14-.056.215-.055.228-.004.45.066.636.197.186.132.326.32.399.537.044.09.054.194.028.291l-4.578 18.847c-.073.29-.202.561-.38.8-.179.237-.403.437-.66.586l-11.393 6.622c-.093.05-.2.067-.302.047-.204-.037-.397-.123-.561-.25-.165-.127-.298-.291-.387-.48v-.032c-.037-.079-.051-.167-.04-.254z"/>
    <path fill="#000" d="M68.92 103.331L73.5 84.484c.072-.29.202-.56.38-.799.178-.238.402-.437.659-.586l11.407-6.632c.054-.029.113-.046.174-.051.06-.006.122.001.18.02.058.02.111.05.158.09.046.04.084.089.11.144.045.09.055.194.028.291l-4.577 18.847c-.073.29-.202.561-.38.8-.18.237-.403.437-.66.586l-11.398 6.632c-.092.049-.199.066-.302.046-.06-.009-.118-.03-.17-.063-.051-.032-.095-.075-.129-.127-.034-.051-.056-.108-.066-.169-.01-.06-.007-.122.008-.182z" opacity=".3"/>
    <path fill="#FFA8A7" d="M76.177 94.746c-1.218-.536-4.093 2.803-6.464 2.309l.59-2.415c-3.721.43-4.756 1.791-6.083 1.976-.815.046-1.632.012-2.44-.101.494 1.889.503 3.874.027 5.768 1.3 0 2.243.037 2.568.037 1.69 0 3.662.725 5.494.355 3.456-.826 4.824-2.101 4.838-3.616 0 0 1.424-.974.98-2.535-.01.01 1.707-1.238.49-1.778z"/>
    <path fill="#12C32C" d="M59.4 95.785c-3.269-.577-4.697-1.145-8.67-1.353l-2.747-7.796c-1.25-3.911-4.216-12.561-6.775-15.19-7.38 1.59-7.928 4.993-1.3 20.995.49 1.187 2.344 4.956 3.662 7.565.397.795 1.005 1.462 1.755 1.929.751.466 1.616.713 2.498.713h11.32c.632-2.234.72-4.588.257-6.863z"/>
    <path fill="#12C32C" d="M63.25 96.335c-1.571-.176-2.802-.365-3.85-.55.454 2.277.357 4.632-.284 6.863h3.717s1.803-3.552.416-6.313z"/>
    <path fill="#fff" d="M59.4 95.785c-3.269-.577-4.697-1.145-8.67-1.353l-2.747-7.796c-1.25-3.911-4.216-12.561-6.775-15.19-7.38 1.59-7.928 4.993-1.3 20.995.49 1.187 2.344 4.956 3.662 7.565.397.795 1.005 1.462 1.755 1.929.751.466 1.616.713 2.498.713h11.32c.632-2.234.72-4.588.257-6.863z" opacity=".4"/>
    <path fill="#fff" d="M63.25 96.335c-1.571-.176-2.802-.365-3.85-.55.454 2.277.357 4.632-.284 6.863h3.717s1.803-3.552.416-6.313z" opacity=".6"/>
    <path fill="#000" d="M50.73 94.432c-1.598-.005-3.19.186-4.743.568 1.073-1.25 2.417-2.233 3.927-2.873l.815 2.305z" opacity=".2"/>
    <path fill="#12C32C" d="M89.324 43.501c-.23-.414-.566-.758-.975-.992l-13.353-7.731c-1.168-.675-3.937.24-3.937 2.138v7.772c-.005.468.114.93.345 1.335.231.406.566.742.969.974l10.304 5.94-1.78-1.026.855 2.443c.005.018.014.035.026.049.011.014.026.025.042.034.017.008.034.013.053.014.018 0 .036-.002.053-.009.151-.078.82-.462 1.204-.697h.028c.014-.008.026-.02.036-.033l.21-.341 2.322 1.339c.385.243.826.379 1.28.394.454.015.904-.092 1.304-.309s.736-.537.973-.928c.238-.39.368-.837.38-1.295v-7.8c-.006-.446-.122-.883-.34-1.27z"/>
    <path fill="#fff" d="M83.194 53.675s-.023 0-.037.033h-.027c-.385.254-1.053.619-1.204.697.035-.006.066-.026.087-.055l.828-1.354-.164-.096.727.42-.21.355z" opacity=".2"/>
    <path fill="#fff" d="M86.733 44.989c-.169-.342-.407-.642-.7-.883-.1-.08-.206-.153-.317-.217L72.36 36.16c-.132-.078-.282-.119-.435-.119-.153 0-.303.04-.435.118-.132.078-.241.189-.317.323-.075.134-.115.285-.113.44 0-1.899 2.77-2.813 3.937-2.139l13.353 7.727c.407.235.742.578.97.992l-2.586 1.488z" opacity=".4"/>
    <path fill="#fff" d="M87.025 53.91v-7.753c0-.105-.008-.21-.023-.314-.04-.303-.132-.596-.27-.868l2.591-1.488c.22.394.337.837.34 1.289v7.745c-.012.458-.142.905-.38 1.295-.238.391-.573.711-.973.928-.4.218-.85.324-1.304.31-.454-.016-.896-.152-1.28-.395.13.075.279.115.43.115.151 0 .3-.04.43-.115.132-.076.241-.184.318-.316.077-.13.119-.28.121-.432z" opacity=".2"/>
    <path fill="#12C32C" d="M128.792 18.096c-.23-.413-.565-.758-.971-.997l-13.357-7.727c-1.172-.679-3.941.24-3.941 2.134v7.777c0 .463.122.918.353 1.319.23.4.562.732.96.962l10.309 5.94-1.78-1.026.851 2.448c.013.035.039.063.072.08.033.015.071.018.106.008.152-.079.824-.462 1.209-.698h.027c.014-.006.027-.016.037-.027l.211-.347 2.32 1.34c.385.243.827.379 1.281.394.454.015.904-.092 1.304-.31.4-.216.736-.537.973-.927.238-.39.368-.837.379-1.296v-7.772c-.004-.448-.122-.887-.343-1.275z"/>
    <path fill="#fff" d="M122.681 28.27c-.01.012-.023.021-.037.028h-.027c-.385.254-1.058.619-1.209.697.035-.01.066-.03.087-.06l.824-1.353-.16-.097.728.42-.206.365z" opacity=".2"/>
    <path fill="#fff" d="M126.196 19.579c-.168-.34-.405-.64-.696-.882-.101-.08-.208-.153-.32-.217l-13.353-7.731c-.133-.078-.284-.119-.438-.118-.153 0-.304.042-.437.12-.132.079-.242.191-.317.326-.076.135-.115.288-.113.443 0-1.894 2.77-2.813 3.942-2.134l13.357 7.727c.406.24.741.584.971.997l-2.596 1.469z" opacity=".4"/>
    <path fill="#fff" d="M126.494 28.501v-7.745c-.001-.105-.009-.21-.023-.314-.043-.303-.136-.596-.275-.868l2.596-1.482c.221.391.337.833.339 1.284v7.749c-.011.458-.142.905-.38 1.296-.237.39-.573.71-.973.928-.4.217-.849.323-1.303.308-.454-.015-.896-.15-1.281-.394.132.076.282.116.434.115.152 0 .302-.041.433-.119.132-.077.241-.187.317-.32.076-.133.116-.284.116-.438z" opacity=".2"/>
    <path fill="#12C32C" d="M181.059 44.808c-.23-.412-.565-.755-.97-.993l-13.358-7.73c-1.172-.675-3.941.24-3.941 2.138v7.772c0 .464.122.92.352 1.321.231.402.563.735.962.965l10.304 5.94-1.781-1.026.852 2.443c.012.035.038.065.071.08.034.017.072.02.107.008.151-.074.824-.439 1.209-.693h.027c.014-.008.027-.019.037-.032l.21-.342 2.321 1.34c.385.243.827.378 1.281.393.454.015.904-.091 1.304-.308.4-.218.735-.538.973-.928.237-.39.368-.838.379-1.296v-7.763c-.002-.452-.119-.895-.339-1.289z"/>
    <path fill="#fff" d="M174.93 54.982c-.01.014-.022.025-.037.033h-.027c-.385.254-1.058.619-1.209.697.018-.004.035-.01.05-.021.015-.01.027-.024.037-.039l.824-1.349-.16-.096.728.42-.206.355z" opacity=".2"/>
    <path fill="#fff" d="M178.464 46.295c-.165-.342-.403-.643-.696-.882-.101-.08-.206-.154-.316-.221l-13.357-7.727c-.133-.077-.282-.117-.435-.117-.152 0-.302.04-.434.117-.132.076-.242.187-.319.32-.076.133-.117.284-.117.438 0-1.898 2.769-2.813 3.941-2.139l13.358 7.731c.405.238.74.581.97.993l-2.595 1.487z" opacity=".4"/>
    <path fill="#fff" d="M178.761 55.218v-7.745c0-.103-.008-.207-.022-.31-.043-.302-.136-.596-.275-.867l2.595-1.488c.22.394.337.837.339 1.289v7.745c-.011.458-.141.905-.379 1.295-.238.39-.573.711-.973.928-.4.218-.85.324-1.304.309-.454-.015-.896-.15-1.281-.394.133.076.282.116.435.115.152 0 .301-.042.433-.119.131-.077.24-.188.316-.32.076-.134.116-.285.116-.438z" opacity=".2"/>
    <path fill="#12C32C" d="M202.789 90.612c-.23-.413-.567-.756-.975-.992l-13.353-7.731c-1.172-.68-3.941.24-3.941 2.138v7.772c.001.464.122.919.353 1.32.231.4.562.732.961.962l10.304 5.944-1.781-1.026.856 2.443c.014.035.04.063.073.079.033.017.071.02.106.009.151-.078.824-.462 1.204-.697h.023s.023 0 .032-.033l.21-.341 2.321 1.334c.385.243.828.379 1.282.394.454.014.904-.092 1.304-.309s.736-.537.974-.927c.238-.391.37-.838.381-1.296v-7.754c0-.451-.115-.895-.334-1.288z"/>
    <path fill="#fff" d="M196.664 100.786s-.022 0-.032.033h-.022c-.38.254-1.053.619-1.204.697.017-.004.033-.011.047-.022.014-.01.026-.023.035-.038l.829-1.353-.165-.092.728.42-.216.355z" opacity=".2"/>
    <path fill="#fff" d="M200.203 92.1c-.168-.34-.405-.64-.696-.882-.099-.082-.204-.154-.315-.218l-13.34-7.735c-.132-.076-.282-.116-.434-.115-.152 0-.301.041-.433.119-.132.077-.241.187-.317.32-.076.133-.116.284-.116.438 0-1.898 2.77-2.817 3.942-2.138l13.353 7.73c.407.237.744.58.975.993l-2.619 1.488z" opacity=".4"/>
    <path fill="#fff" d="M200.501 101.017v-7.754c.007-.103.007-.206 0-.309-.042-.303-.135-.597-.275-.868l2.595-1.487c.221.393.338.836.339 1.288v7.74c-.012.459-.143.905-.381 1.296-.238.39-.574.71-.975.927-.4.217-.85.324-1.304.309-.454-.015-.896-.151-1.281-.393.131.071.277.107.425.104.149-.002.294-.042.423-.117.128-.075.236-.182.311-.311.076-.129.118-.275.123-.425z" opacity=".2"/>
    <path fill="#474C52" d="M47.456 240.442h3.534v10.735h3.249v-10.735h3.534v-2.603H47.456v2.603zm16.83 6.764l-2.45-6.631h-3.63l4.314 10.241-2.432 5.396h3.496l6.65-15.637h-3.515l-2.432 6.631zm10.371-5.13v-1.501H71.41v15.656h3.248v-6.536c.59.893 1.71 1.634 3.269 1.634 2.602 0 4.674-2.128 4.674-5.472 0-3.344-2.072-5.434-4.674-5.434-1.558 0-2.68.722-3.269 1.653zm4.636 3.781c0 1.691-1.102 2.641-2.337 2.641-1.216 0-2.318-.931-2.318-2.622 0-1.691 1.102-2.622 2.319-2.622 1.235 0 2.337.912 2.337 2.603zm9.685-2.831c1.083 0 1.995.665 1.995 1.824h-4.066c.19-1.178 1.007-1.824 2.071-1.824zm5.073 4.636h-3.458c-.266.57-.779 1.026-1.691 1.026-1.045 0-1.9-.646-2.014-2.033h7.353c.038-.323.057-.646.057-.95 0-3.23-2.185-5.282-5.282-5.282-3.154 0-5.358 2.09-5.358 5.453 0 3.363 2.242 5.453 5.358 5.453 2.641 0 4.522-1.596 5.035-3.667zm5.341-1.805c0 3.344 2.071 5.472 4.655 5.472 1.577 0 2.698-.722 3.287-1.653v1.501h3.249v-10.602h-3.249v1.501c-.57-.931-1.691-1.653-3.268-1.653-2.603 0-4.674 2.09-4.674 5.434zm7.942.019c0 1.691-1.083 2.622-2.318 2.622-1.216 0-2.318-.95-2.318-2.641s1.102-2.603 2.318-2.603c1.235 0 2.318.931 2.318 2.622zm18.309-8.037v8.265l-5.434-8.265h-3.249v13.338h3.249v-8.227l5.434 8.227h3.249v-13.338h-3.249zm10.278 5.187c1.083 0 1.995.665 1.995 1.824h-4.066c.19-1.178 1.007-1.824 2.071-1.824zm5.073 4.636h-3.458c-.266.57-.779 1.026-1.691 1.026-1.045 0-1.9-.646-2.014-2.033h7.353c.038-.323.057-.646.057-.95 0-3.23-2.185-5.282-5.282-5.282-3.154 0-5.358 2.09-5.358 5.453 0 3.363 2.242 5.453 5.358 5.453 2.641 0 4.522-1.596 5.035-3.667zm6.635-4.636c1.083 0 1.995.665 1.995 1.824h-4.066c.19-1.178 1.007-1.824 2.071-1.824zm5.073 4.636h-3.458c-.266.57-.779 1.026-1.691 1.026-1.045 0-1.9-.646-2.014-2.033h7.353c.038-.323.057-.646.057-.95 0-3.23-2.185-5.282-5.282-5.282-3.154 0-5.358 2.09-5.358 5.453 0 3.363 2.242 5.453 5.358 5.453 2.641 0 4.522-1.596 5.035-3.667zm1.315-1.805c0 3.344 2.071 5.472 4.674 5.472 1.558 0 2.679-.703 3.268-1.672v1.52h3.249v-14.06h-3.249v4.921c-.646-.969-1.862-1.615-3.268-1.615-2.603 0-4.674 2.09-4.674 5.434zm7.942.019c0 1.691-1.083 2.622-2.318 2.622-1.216 0-2.318-.95-2.318-2.641s1.102-2.603 2.318-2.603c1.235 0 2.318.931 2.318 2.622z"/>
</svg>
