<svg xmlns="http://www.w3.org/2000/svg" width="17" height="21" fill="none" viewBox="0 0 17 21">
    <path fill="#7C7C7C" fill-opacity=".5" fill-rule="evenodd" d="M8.107.855c-.896 0-1.622.726-1.622 1.621v.183c-2.797.72-4.864 3.26-4.864 6.281v5.515h12.97V8.94c0-3.022-2.066-5.56-4.863-6.28v-.184c0-.895-.726-1.621-1.621-1.621zm-2.433 17.6c0 1.326 1.075 2.4 2.4 2.4h.064c1.326 0 2.4-1.075 2.4-2.4H5.675zm-3.674-4c-1.105 0-2 .895-2 2v.2c0 .552.448 1 1 1h14.213c.553 0 1-.448 1-1v-.2c0-1.105-.895-2-2-2H2z" clip-rule="evenodd"/>
</svg>
